M48
INCH,TZ
T1C0.025
T2C0.032
T3C0.040
T4C0.047
T5C0.197
%
G90
G05
T1
X53700Y-42300
X59250Y-41500
X64600Y-42300
T2
X57750Y-43750
X57750Y-44750
X57750Y-45750
X57750Y-46750
X60750Y-43750
X60750Y-44750
X60750Y-45750
X60750Y-46750
T3
X50000Y-39500
X51000Y-39500
X52250Y-39500
X53250Y-39500
X54500Y-36750
X54500Y-37750
X54500Y-38750
X54500Y-39750
X54500Y-40750
X55500Y-36750
X55500Y-37750
X55500Y-38750
X55500Y-39750
X55500Y-40750
X57750Y-42000
X58500Y-36750
X58500Y-37750
X58500Y-38750
X58500Y-39750
X59500Y-36750
X59500Y-37750
X59500Y-38750
X59500Y-39750
X60750Y-42000
X62500Y-36750
X62500Y-37750
X62500Y-38750
X62500Y-39750
X62500Y-40750
X63500Y-36750
X63500Y-37750
X63500Y-38750
X63500Y-39750
X63500Y-40750
X64750Y-39500
X65750Y-39500
X67000Y-39500
X68000Y-39500
T4
X54266Y-44516
X55250Y-46500
X56234Y-44516
X62016Y-44516
X63000Y-46500
X63984Y-44516
T5
X51083Y-45472
X66831Y-45472
T0
M30
