%FSLAX46Y46*%
G04 Gerber Fmt 4.6, Leading zero omitted, Abs format (unit mm)*
G04 Created by KiCad (PCBNEW (2014-09-11 BZR 5128)-product) date do 25 sep 2014 05:14:31 CEST*
%MOMM*%
G01*
G04 APERTURE LIST*
%ADD10C,0.100000*%
%ADD11R,2.000000X1.700000*%
%ADD12R,2.235200X2.235200*%
%ADD13R,1.397000X1.397000*%
%ADD14C,1.397000*%
%ADD15R,1.597660X1.800860*%
%ADD16R,1.727200X1.727200*%
%ADD17O,1.727200X1.727200*%
%ADD18C,2.499360*%
%ADD19R,2.032000X2.032000*%
%ADD20O,2.032000X2.032000*%
G04 APERTURE END LIST*
D10*
D11*
X167545000Y-107315000D03*
X171545000Y-107315000D03*
D12*
X154305000Y-106680000D03*
D13*
X146685000Y-111125000D03*
D14*
X146685000Y-113665000D03*
X146685000Y-116205000D03*
X146685000Y-118745000D03*
X154305000Y-118745000D03*
X154305000Y-116205000D03*
X154305000Y-113665000D03*
X154305000Y-111125000D03*
D12*
X146685000Y-106680000D03*
D15*
X138915140Y-109855000D03*
X141754860Y-109855000D03*
D16*
X158750000Y-93345000D03*
D17*
X161290000Y-93345000D03*
X158750000Y-95885000D03*
X161290000Y-95885000D03*
X158750000Y-98425000D03*
X161290000Y-98425000D03*
X158750000Y-100965000D03*
X161290000Y-100965000D03*
X158750000Y-103505000D03*
X161290000Y-103505000D03*
D11*
X142462000Y-107442000D03*
X138462000Y-107442000D03*
D18*
X140335000Y-118110000D03*
X137835640Y-113070640D03*
X142834360Y-113070640D03*
D15*
X161439860Y-109855000D03*
X158600140Y-109855000D03*
D18*
X160020000Y-118110000D03*
X157520640Y-113070640D03*
X162519360Y-113070640D03*
D11*
X132175000Y-103505000D03*
X128175000Y-103505000D03*
D16*
X151130000Y-93345000D03*
D17*
X148590000Y-93345000D03*
X151130000Y-95885000D03*
X148590000Y-95885000D03*
X151130000Y-98425000D03*
X148590000Y-98425000D03*
X151130000Y-100965000D03*
X148590000Y-100965000D03*
D16*
X140970000Y-93345000D03*
D17*
X138430000Y-93345000D03*
X140970000Y-95885000D03*
X138430000Y-95885000D03*
X140970000Y-98425000D03*
X138430000Y-98425000D03*
X140970000Y-100965000D03*
X138430000Y-100965000D03*
X140970000Y-103505000D03*
X138430000Y-103505000D03*
D11*
X132175000Y-107315000D03*
X128175000Y-107315000D03*
X167545000Y-103505000D03*
X171545000Y-103505000D03*
X158020000Y-107442000D03*
X162020000Y-107442000D03*
D19*
X129540000Y-100330000D03*
D20*
X127000000Y-100330000D03*
D19*
X135255000Y-100330000D03*
D20*
X132715000Y-100330000D03*
D19*
X172720000Y-100330000D03*
D20*
X170180000Y-100330000D03*
D19*
X167005000Y-100330000D03*
D20*
X164465000Y-100330000D03*
M02*
