%FSLAX46Y46*%
G04 Gerber Fmt 4.6, Leading zero omitted, Abs format (unit mm)*
G04 Created by KiCad (PCBNEW (2014-09-11 BZR 5128)-product) date do 25 sep 2014 05:14:31 CEST*
%MOMM*%
G01*
G04 APERTURE LIST*
%ADD10C,0.100000*%
%ADD11C,0.300000*%
%ADD12C,0.150000*%
%ADD13C,0.254000*%
%ADD14C,0.066040*%
%ADD15C,0.101600*%
%ADD16C,0.304800*%
%ADD17C,0.203200*%
%ADD18C,0.088900*%
G04 APERTURE END LIST*
D10*
D11*
X145795952Y-95456429D02*
X145795952Y-96789762D01*
X145319762Y-94694524D02*
X144843571Y-96123095D01*
X146081667Y-96123095D01*
X144843571Y-92440238D02*
X144938809Y-92345000D01*
X145129286Y-92249762D01*
X145605476Y-92249762D01*
X145795952Y-92345000D01*
X145891190Y-92440238D01*
X145986429Y-92630714D01*
X145986429Y-92821190D01*
X145891190Y-93106905D01*
X144748333Y-94249762D01*
X145986429Y-94249762D01*
X154781190Y-97329762D02*
X153828809Y-97329762D01*
X153733571Y-98282143D01*
X153828809Y-98186905D01*
X154019286Y-98091667D01*
X154495476Y-98091667D01*
X154685952Y-98186905D01*
X154781190Y-98282143D01*
X154876429Y-98472619D01*
X154876429Y-98948810D01*
X154781190Y-99139286D01*
X154685952Y-99234524D01*
X154495476Y-99329762D01*
X154019286Y-99329762D01*
X153828809Y-99234524D01*
X153733571Y-99139286D01*
X153638333Y-94789762D02*
X154876429Y-94789762D01*
X154209762Y-95551667D01*
X154495476Y-95551667D01*
X154685952Y-95646905D01*
X154781190Y-95742143D01*
X154876429Y-95932619D01*
X154876429Y-96408810D01*
X154781190Y-96599286D01*
X154685952Y-96694524D01*
X154495476Y-96789762D01*
X153924048Y-96789762D01*
X153733571Y-96694524D01*
X153638333Y-96599286D01*
X154876429Y-94249762D02*
X153733571Y-94249762D01*
X154305000Y-94249762D02*
X154305000Y-92249762D01*
X154114524Y-92535476D01*
X153924048Y-92725952D01*
X153733571Y-92821190D01*
X145795952Y-97329762D02*
X145415000Y-97329762D01*
X145224524Y-97425000D01*
X145129286Y-97520238D01*
X144938809Y-97805952D01*
X144843571Y-98186905D01*
X144843571Y-98948810D01*
X144938809Y-99139286D01*
X145034048Y-99234524D01*
X145224524Y-99329762D01*
X145605476Y-99329762D01*
X145795952Y-99234524D01*
X145891190Y-99139286D01*
X145986429Y-98948810D01*
X145986429Y-98472619D01*
X145891190Y-98282143D01*
X145795952Y-98186905D01*
X145605476Y-98091667D01*
X145224524Y-98091667D01*
X145034048Y-98186905D01*
X144938809Y-98282143D01*
X144843571Y-98472619D01*
X145224524Y-100726905D02*
X145034048Y-100631667D01*
X144938809Y-100536429D01*
X144843571Y-100345952D01*
X144843571Y-100250714D01*
X144938809Y-100060238D01*
X145034048Y-99965000D01*
X145224524Y-99869762D01*
X145605476Y-99869762D01*
X145795952Y-99965000D01*
X145891190Y-100060238D01*
X145986429Y-100250714D01*
X145986429Y-100345952D01*
X145891190Y-100536429D01*
X145795952Y-100631667D01*
X145605476Y-100726905D01*
X145224524Y-100726905D01*
X145034048Y-100822143D01*
X144938809Y-100917381D01*
X144843571Y-101107857D01*
X144843571Y-101488810D01*
X144938809Y-101679286D01*
X145034048Y-101774524D01*
X145224524Y-101869762D01*
X145605476Y-101869762D01*
X145795952Y-101774524D01*
X145891190Y-101679286D01*
X145986429Y-101488810D01*
X145986429Y-101107857D01*
X145891190Y-100917381D01*
X145795952Y-100822143D01*
X145605476Y-100726905D01*
X153638333Y-99869762D02*
X154971667Y-99869762D01*
X154114524Y-101869762D01*
D12*
X170545000Y-108390000D02*
X168545000Y-108390000D01*
X168545000Y-106240000D02*
X170545000Y-106240000D01*
X153035000Y-107950000D02*
X155575000Y-107950000D01*
X155575000Y-107950000D02*
X155575000Y-105410000D01*
X155575000Y-105410000D02*
X153035000Y-105410000D01*
X153035000Y-105410000D02*
X153035000Y-107950000D01*
D13*
X151765000Y-109855000D02*
X151765000Y-111125000D01*
X151765000Y-111125000D02*
X149225000Y-111125000D01*
X149225000Y-111125000D02*
X149225000Y-109855000D01*
X153035000Y-109855000D02*
X153035000Y-120015000D01*
X153035000Y-120015000D02*
X147955000Y-120015000D01*
X147955000Y-120015000D02*
X147955000Y-109855000D01*
X147955000Y-109855000D02*
X153035000Y-109855000D01*
D12*
X147955000Y-105410000D02*
X145415000Y-105410000D01*
X145415000Y-105410000D02*
X145415000Y-107950000D01*
X145415000Y-107950000D02*
X147955000Y-107950000D01*
X147955000Y-107950000D02*
X147955000Y-105410000D01*
D14*
X140235940Y-109954060D02*
X140434060Y-109954060D01*
X140434060Y-109954060D02*
X140434060Y-109755940D01*
X140235940Y-109755940D02*
X140434060Y-109755940D01*
X140235940Y-109954060D02*
X140235940Y-109755940D01*
X140784580Y-110553500D02*
X141132560Y-110553500D01*
X141132560Y-110553500D02*
X141132560Y-110304580D01*
X140784580Y-110304580D02*
X141132560Y-110304580D01*
X140784580Y-110553500D02*
X140784580Y-110304580D01*
X141132560Y-110553500D02*
X141234160Y-110553500D01*
X141234160Y-110553500D02*
X141234160Y-109357160D01*
X141132560Y-109357160D02*
X141234160Y-109357160D01*
X141132560Y-110553500D02*
X141132560Y-109357160D01*
X141132560Y-109306360D02*
X141234160Y-109306360D01*
X141234160Y-109306360D02*
X141234160Y-109156500D01*
X141132560Y-109156500D02*
X141234160Y-109156500D01*
X141132560Y-109306360D02*
X141132560Y-109156500D01*
X139435840Y-110553500D02*
X139537440Y-110553500D01*
X139537440Y-110553500D02*
X139537440Y-109357160D01*
X139435840Y-109357160D02*
X139537440Y-109357160D01*
X139435840Y-110553500D02*
X139435840Y-109357160D01*
X139435840Y-109306360D02*
X139537440Y-109306360D01*
X139537440Y-109306360D02*
X139537440Y-109156500D01*
X139435840Y-109156500D02*
X139537440Y-109156500D01*
X139435840Y-109306360D02*
X139435840Y-109156500D01*
X140784580Y-110553500D02*
X140934440Y-110553500D01*
X140934440Y-110553500D02*
X140934440Y-110304580D01*
X140784580Y-110304580D02*
X140934440Y-110304580D01*
X140784580Y-110553500D02*
X140784580Y-110304580D01*
D15*
X141884400Y-110604300D02*
X138785600Y-110604300D01*
X138785600Y-110604300D02*
X138785600Y-109105700D01*
X138785600Y-109105700D02*
X141884400Y-109105700D01*
X141884400Y-109105700D02*
X141884400Y-110604300D01*
X139787738Y-110354354D02*
G75*
G03X140883640Y-110352840I547262J499354D01*
G74*
G01*
X139786867Y-109356602D02*
G75*
G03X139786360Y-110352840I548133J-498398D01*
G74*
G01*
X140882262Y-109355646D02*
G75*
G03X139786360Y-109357160I-547262J-499354D01*
G74*
G01*
X140883133Y-110353398D02*
G75*
G03X140883640Y-109357160I-548133J498398D01*
G74*
G01*
D12*
X139462000Y-106367000D02*
X141462000Y-106367000D01*
X141462000Y-108517000D02*
X139462000Y-108517000D01*
X140589000Y-115951000D02*
X140589000Y-116713000D01*
X140081000Y-115951000D02*
X140081000Y-116713000D01*
X140589000Y-113919000D02*
G75*
G03X138684000Y-115316000I-254000J-1651000D01*
G74*
G01*
X141986000Y-115443000D02*
G75*
G03X140208000Y-113919000I-1651000J-127000D01*
G74*
G01*
X138938000Y-114681000D02*
G75*
G03X139446000Y-116967000I1397000J-889000D01*
G74*
G01*
X141224000Y-116967000D02*
G75*
G03X141732000Y-114681000I-889000J1397000D01*
G74*
G01*
X143637000Y-111760000D02*
X143637000Y-111887000D01*
X143637000Y-115570000D02*
X143637000Y-114173000D01*
X137033000Y-111760000D02*
X137033000Y-111887000D01*
X137033000Y-115570000D02*
X137033000Y-114173000D01*
X141478000Y-112649000D02*
X141097000Y-112522000D01*
X141097000Y-112522000D02*
X140335000Y-112395000D01*
X140335000Y-112395000D02*
X139573000Y-112522000D01*
X139573000Y-112522000D02*
X139192000Y-112649000D01*
X141605000Y-113538000D02*
X139065000Y-113538000D01*
X137414000Y-114300000D02*
G75*
G03X139065000Y-118491000I2921000J-1270000D01*
G74*
G01*
X141605000Y-118491000D02*
G75*
G03X143256000Y-114300000I-1270000J2921000D01*
G74*
G01*
X138303000Y-118872000D02*
X139192000Y-118872000D01*
X141478000Y-118872000D02*
X142367000Y-118872000D01*
X138684000Y-115951000D02*
X138176000Y-115951000D01*
X138176000Y-115951000D02*
X138176000Y-115189000D01*
X138176000Y-115189000D02*
X138684000Y-115189000D01*
X141986000Y-115951000D02*
X142494000Y-115951000D01*
X142494000Y-115951000D02*
X142494000Y-115189000D01*
X142494000Y-115189000D02*
X141986000Y-115189000D01*
X139827000Y-115316000D02*
X138684000Y-115316000D01*
X139827000Y-115824000D02*
X138684000Y-115824000D01*
X140843000Y-115316000D02*
X141986000Y-115316000D01*
X140843000Y-115824000D02*
X141986000Y-115824000D01*
X140081000Y-115189000D02*
X140081000Y-113919000D01*
X140589000Y-115189000D02*
X140589000Y-113919000D01*
X140843000Y-115951000D02*
X140843000Y-115189000D01*
X140843000Y-115189000D02*
X139827000Y-115189000D01*
X139827000Y-115189000D02*
X139827000Y-115951000D01*
X139827000Y-115951000D02*
X140843000Y-115951000D01*
X142367000Y-118872000D02*
X143637000Y-117475000D01*
X143637000Y-117475000D02*
X143637000Y-115570000D01*
X138303000Y-118872000D02*
X137033000Y-117475000D01*
X137033000Y-117475000D02*
X137033000Y-115570000D01*
X137287000Y-111760000D02*
X137287000Y-111506000D01*
X137287000Y-111506000D02*
X138430000Y-111506000D01*
X138430000Y-111506000D02*
X138430000Y-111760000D01*
X143383000Y-111760000D02*
X143383000Y-111506000D01*
X143383000Y-111506000D02*
X142240000Y-111506000D01*
X142240000Y-111506000D02*
X142240000Y-111760000D01*
X143637000Y-111760000D02*
X137033000Y-111760000D01*
D14*
X160119060Y-109755940D02*
X159920940Y-109755940D01*
X159920940Y-109755940D02*
X159920940Y-109954060D01*
X160119060Y-109954060D02*
X159920940Y-109954060D01*
X160119060Y-109755940D02*
X160119060Y-109954060D01*
X159570420Y-109156500D02*
X159222440Y-109156500D01*
X159222440Y-109156500D02*
X159222440Y-109405420D01*
X159570420Y-109405420D02*
X159222440Y-109405420D01*
X159570420Y-109156500D02*
X159570420Y-109405420D01*
X159222440Y-109156500D02*
X159120840Y-109156500D01*
X159120840Y-109156500D02*
X159120840Y-110352840D01*
X159222440Y-110352840D02*
X159120840Y-110352840D01*
X159222440Y-109156500D02*
X159222440Y-110352840D01*
X159222440Y-110403640D02*
X159120840Y-110403640D01*
X159120840Y-110403640D02*
X159120840Y-110553500D01*
X159222440Y-110553500D02*
X159120840Y-110553500D01*
X159222440Y-110403640D02*
X159222440Y-110553500D01*
X160919160Y-109156500D02*
X160817560Y-109156500D01*
X160817560Y-109156500D02*
X160817560Y-110352840D01*
X160919160Y-110352840D02*
X160817560Y-110352840D01*
X160919160Y-109156500D02*
X160919160Y-110352840D01*
X160919160Y-110403640D02*
X160817560Y-110403640D01*
X160817560Y-110403640D02*
X160817560Y-110553500D01*
X160919160Y-110553500D02*
X160817560Y-110553500D01*
X160919160Y-110403640D02*
X160919160Y-110553500D01*
X159570420Y-109156500D02*
X159420560Y-109156500D01*
X159420560Y-109156500D02*
X159420560Y-109405420D01*
X159570420Y-109405420D02*
X159420560Y-109405420D01*
X159570420Y-109156500D02*
X159570420Y-109405420D01*
D15*
X158470600Y-109105700D02*
X161569400Y-109105700D01*
X161569400Y-109105700D02*
X161569400Y-110604300D01*
X161569400Y-110604300D02*
X158470600Y-110604300D01*
X158470600Y-110604300D02*
X158470600Y-109105700D01*
X160567262Y-109355646D02*
G75*
G03X159471360Y-109357160I-547262J-499354D01*
G74*
G01*
X160568133Y-110353398D02*
G75*
G03X160568640Y-109357160I-548133J498398D01*
G74*
G01*
X159472738Y-110354354D02*
G75*
G03X160568640Y-110352840I547262J499354D01*
G74*
G01*
X159471867Y-109356602D02*
G75*
G03X159471360Y-110352840I548133J-498398D01*
G74*
G01*
D12*
X160274000Y-115951000D02*
X160274000Y-116713000D01*
X159766000Y-115951000D02*
X159766000Y-116713000D01*
X160274000Y-113919000D02*
G75*
G03X158369000Y-115316000I-254000J-1651000D01*
G74*
G01*
X161671000Y-115443000D02*
G75*
G03X159893000Y-113919000I-1651000J-127000D01*
G74*
G01*
X158623000Y-114681000D02*
G75*
G03X159131000Y-116967000I1397000J-889000D01*
G74*
G01*
X160909000Y-116967000D02*
G75*
G03X161417000Y-114681000I-889000J1397000D01*
G74*
G01*
X163322000Y-111760000D02*
X163322000Y-111887000D01*
X163322000Y-115570000D02*
X163322000Y-114173000D01*
X156718000Y-111760000D02*
X156718000Y-111887000D01*
X156718000Y-115570000D02*
X156718000Y-114173000D01*
X161163000Y-112649000D02*
X160782000Y-112522000D01*
X160782000Y-112522000D02*
X160020000Y-112395000D01*
X160020000Y-112395000D02*
X159258000Y-112522000D01*
X159258000Y-112522000D02*
X158877000Y-112649000D01*
X161290000Y-113538000D02*
X158750000Y-113538000D01*
X157099000Y-114300000D02*
G75*
G03X158750000Y-118491000I2921000J-1270000D01*
G74*
G01*
X161290000Y-118491000D02*
G75*
G03X162941000Y-114300000I-1270000J2921000D01*
G74*
G01*
X157988000Y-118872000D02*
X158877000Y-118872000D01*
X161163000Y-118872000D02*
X162052000Y-118872000D01*
X158369000Y-115951000D02*
X157861000Y-115951000D01*
X157861000Y-115951000D02*
X157861000Y-115189000D01*
X157861000Y-115189000D02*
X158369000Y-115189000D01*
X161671000Y-115951000D02*
X162179000Y-115951000D01*
X162179000Y-115951000D02*
X162179000Y-115189000D01*
X162179000Y-115189000D02*
X161671000Y-115189000D01*
X159512000Y-115316000D02*
X158369000Y-115316000D01*
X159512000Y-115824000D02*
X158369000Y-115824000D01*
X160528000Y-115316000D02*
X161671000Y-115316000D01*
X160528000Y-115824000D02*
X161671000Y-115824000D01*
X159766000Y-115189000D02*
X159766000Y-113919000D01*
X160274000Y-115189000D02*
X160274000Y-113919000D01*
X160528000Y-115951000D02*
X160528000Y-115189000D01*
X160528000Y-115189000D02*
X159512000Y-115189000D01*
X159512000Y-115189000D02*
X159512000Y-115951000D01*
X159512000Y-115951000D02*
X160528000Y-115951000D01*
X162052000Y-118872000D02*
X163322000Y-117475000D01*
X163322000Y-117475000D02*
X163322000Y-115570000D01*
X157988000Y-118872000D02*
X156718000Y-117475000D01*
X156718000Y-117475000D02*
X156718000Y-115570000D01*
X156972000Y-111760000D02*
X156972000Y-111506000D01*
X156972000Y-111506000D02*
X158115000Y-111506000D01*
X158115000Y-111506000D02*
X158115000Y-111760000D01*
X163068000Y-111760000D02*
X163068000Y-111506000D01*
X163068000Y-111506000D02*
X161925000Y-111506000D01*
X161925000Y-111506000D02*
X161925000Y-111760000D01*
X163322000Y-111760000D02*
X156718000Y-111760000D01*
X129175000Y-102430000D02*
X131175000Y-102430000D01*
X131175000Y-104580000D02*
X129175000Y-104580000D01*
X152400000Y-94615000D02*
X152400000Y-102235000D01*
X152400000Y-102235000D02*
X147320000Y-102235000D01*
X147320000Y-102235000D02*
X147320000Y-92075000D01*
X147320000Y-92075000D02*
X149860000Y-92075000D01*
X152400000Y-92075000D02*
X152400000Y-94615000D01*
X149860000Y-92075000D02*
X149860000Y-94615000D01*
X149860000Y-94615000D02*
X152400000Y-94615000D01*
X152400000Y-92075000D02*
X149860000Y-92075000D01*
X137160000Y-92075000D02*
X137160000Y-104775000D01*
X137160000Y-104775000D02*
X142240000Y-104775000D01*
X142240000Y-104775000D02*
X142240000Y-94615000D01*
X137160000Y-92075000D02*
X139700000Y-92075000D01*
X142240000Y-92075000D02*
X142240000Y-94615000D01*
X139700000Y-92075000D02*
X139700000Y-94615000D01*
X139700000Y-94615000D02*
X142240000Y-94615000D01*
X142240000Y-92075000D02*
X139700000Y-92075000D01*
X129175000Y-106240000D02*
X131175000Y-106240000D01*
X131175000Y-108390000D02*
X129175000Y-108390000D01*
X170545000Y-104580000D02*
X168545000Y-104580000D01*
X168545000Y-102430000D02*
X170545000Y-102430000D01*
X161020000Y-108517000D02*
X159020000Y-108517000D01*
X159020000Y-106367000D02*
X161020000Y-106367000D01*
X125730000Y-90230000D02*
X125730000Y-99060000D01*
X128270000Y-90230000D02*
X125730000Y-90230000D01*
X128270000Y-99060000D02*
X128270000Y-90230000D01*
X128270000Y-99060000D02*
X125730000Y-99060000D01*
X130810000Y-99060000D02*
X128270000Y-99060000D01*
X130810000Y-99060000D02*
X128270000Y-90230000D01*
X130810000Y-90230000D02*
X128270000Y-99060000D01*
X130810000Y-99060000D02*
X130810000Y-90230000D01*
X130810000Y-90230000D02*
X128270000Y-90230000D01*
X128270000Y-90230000D02*
X128270000Y-99060000D01*
X131445000Y-90230000D02*
X131445000Y-99060000D01*
X133985000Y-90230000D02*
X131445000Y-90230000D01*
X133985000Y-99060000D02*
X133985000Y-90230000D01*
X133985000Y-99060000D02*
X131445000Y-99060000D01*
X136525000Y-99060000D02*
X133985000Y-99060000D01*
X136525000Y-99060000D02*
X133985000Y-90230000D01*
X136525000Y-90230000D02*
X133985000Y-99060000D01*
X136525000Y-99060000D02*
X136525000Y-90230000D01*
X136525000Y-90230000D02*
X133985000Y-90230000D01*
X133985000Y-90230000D02*
X133985000Y-99060000D01*
X168910000Y-90230000D02*
X168910000Y-99060000D01*
X171450000Y-90230000D02*
X168910000Y-90230000D01*
X171450000Y-99060000D02*
X171450000Y-90230000D01*
X171450000Y-99060000D02*
X168910000Y-99060000D01*
X173990000Y-99060000D02*
X171450000Y-99060000D01*
X173990000Y-99060000D02*
X171450000Y-90230000D01*
X173990000Y-90230000D02*
X171450000Y-99060000D01*
X173990000Y-99060000D02*
X173990000Y-90230000D01*
X173990000Y-90230000D02*
X171450000Y-90230000D01*
X171450000Y-90230000D02*
X171450000Y-99060000D01*
X163195000Y-90230000D02*
X163195000Y-99060000D01*
X165735000Y-90230000D02*
X163195000Y-90230000D01*
X165735000Y-99060000D02*
X165735000Y-90230000D01*
X165735000Y-99060000D02*
X163195000Y-99060000D01*
X168275000Y-99060000D02*
X165735000Y-99060000D01*
X168275000Y-99060000D02*
X165735000Y-90230000D01*
X168275000Y-90230000D02*
X165735000Y-99060000D01*
X168275000Y-99060000D02*
X168275000Y-90230000D01*
X168275000Y-90230000D02*
X165735000Y-90230000D01*
X165735000Y-90230000D02*
X165735000Y-99060000D01*
D16*
X127899428Y-116189429D02*
X127899428Y-114665429D01*
X128480000Y-114665429D01*
X128625142Y-114738000D01*
X128697714Y-114810571D01*
X128770285Y-114955714D01*
X128770285Y-115173429D01*
X128697714Y-115318571D01*
X128625142Y-115391143D01*
X128480000Y-115463714D01*
X127899428Y-115463714D01*
X130221714Y-116189429D02*
X129350857Y-116189429D01*
X129786285Y-116189429D02*
X129786285Y-114665429D01*
X129641142Y-114883143D01*
X129496000Y-115028286D01*
X129350857Y-115100857D01*
X131673143Y-116189429D02*
X130802286Y-116189429D01*
X131237714Y-116189429D02*
X131237714Y-114665429D01*
X131092571Y-114883143D01*
X130947429Y-115028286D01*
X130802286Y-115100857D01*
X167899428Y-116189429D02*
X167899428Y-114665429D01*
X168480000Y-114665429D01*
X168625142Y-114738000D01*
X168697714Y-114810571D01*
X168770285Y-114955714D01*
X168770285Y-115173429D01*
X168697714Y-115318571D01*
X168625142Y-115391143D01*
X168480000Y-115463714D01*
X167899428Y-115463714D01*
X170221714Y-116189429D02*
X169350857Y-116189429D01*
X169786285Y-116189429D02*
X169786285Y-114665429D01*
X169641142Y-114883143D01*
X169496000Y-115028286D01*
X169350857Y-115100857D01*
X171165143Y-114665429D02*
X171310286Y-114665429D01*
X171455429Y-114738000D01*
X171528000Y-114810571D01*
X171600571Y-114955714D01*
X171673143Y-115246000D01*
X171673143Y-115608857D01*
X171600571Y-115899143D01*
X171528000Y-116044286D01*
X171455429Y-116116857D01*
X171310286Y-116189429D01*
X171165143Y-116189429D01*
X171020000Y-116116857D01*
X170947429Y-116044286D01*
X170874857Y-115899143D01*
X170802286Y-115608857D01*
X170802286Y-115246000D01*
X170874857Y-114955714D01*
X170947429Y-114810571D01*
X171020000Y-114738000D01*
X171165143Y-114665429D01*
D12*
X167473334Y-109672381D02*
X167140000Y-109196190D01*
X166901905Y-109672381D02*
X166901905Y-108672381D01*
X167282858Y-108672381D01*
X167378096Y-108720000D01*
X167425715Y-108767619D01*
X167473334Y-108862857D01*
X167473334Y-109005714D01*
X167425715Y-109100952D01*
X167378096Y-109148571D01*
X167282858Y-109196190D01*
X166901905Y-109196190D01*
X168330477Y-108672381D02*
X168140000Y-108672381D01*
X168044762Y-108720000D01*
X167997143Y-108767619D01*
X167901905Y-108910476D01*
X167854286Y-109100952D01*
X167854286Y-109481905D01*
X167901905Y-109577143D01*
X167949524Y-109624762D01*
X168044762Y-109672381D01*
X168235239Y-109672381D01*
X168330477Y-109624762D01*
X168378096Y-109577143D01*
X168425715Y-109481905D01*
X168425715Y-109243810D01*
X168378096Y-109148571D01*
X168330477Y-109100952D01*
X168235239Y-109053333D01*
X168044762Y-109053333D01*
X167949524Y-109100952D01*
X167901905Y-109148571D01*
X167854286Y-109243810D01*
X170799286Y-108672381D02*
X171418334Y-108672381D01*
X171085000Y-109053333D01*
X171227858Y-109053333D01*
X171323096Y-109100952D01*
X171370715Y-109148571D01*
X171418334Y-109243810D01*
X171418334Y-109481905D01*
X171370715Y-109577143D01*
X171323096Y-109624762D01*
X171227858Y-109672381D01*
X170942143Y-109672381D01*
X170846905Y-109624762D01*
X170799286Y-109577143D01*
X171751667Y-108672381D02*
X172370715Y-108672381D01*
X172037381Y-109053333D01*
X172180239Y-109053333D01*
X172275477Y-109100952D01*
X172323096Y-109148571D01*
X172370715Y-109243810D01*
X172370715Y-109481905D01*
X172323096Y-109577143D01*
X172275477Y-109624762D01*
X172180239Y-109672381D01*
X171894524Y-109672381D01*
X171799286Y-109624762D01*
X171751667Y-109577143D01*
X172989762Y-108672381D02*
X173085001Y-108672381D01*
X173180239Y-108720000D01*
X173227858Y-108767619D01*
X173275477Y-108862857D01*
X173323096Y-109053333D01*
X173323096Y-109291429D01*
X173275477Y-109481905D01*
X173227858Y-109577143D01*
X173180239Y-109624762D01*
X173085001Y-109672381D01*
X172989762Y-109672381D01*
X172894524Y-109624762D01*
X172846905Y-109577143D01*
X172799286Y-109481905D01*
X172751667Y-109291429D01*
X172751667Y-109053333D01*
X172799286Y-108862857D01*
X172846905Y-108767619D01*
X172894524Y-108720000D01*
X172989762Y-108672381D01*
D17*
X153367619Y-105349524D02*
X153367619Y-104079524D01*
X153851428Y-104079524D01*
X153972381Y-104140000D01*
X154032857Y-104200476D01*
X154093333Y-104321429D01*
X154093333Y-104502857D01*
X154032857Y-104623810D01*
X153972381Y-104684286D01*
X153851428Y-104744762D01*
X153367619Y-104744762D01*
X154698095Y-105349524D02*
X154940000Y-105349524D01*
X155060952Y-105289048D01*
X155121428Y-105228571D01*
X155242381Y-105047143D01*
X155302857Y-104805238D01*
X155302857Y-104321429D01*
X155242381Y-104200476D01*
X155181905Y-104140000D01*
X155060952Y-104079524D01*
X154819048Y-104079524D01*
X154698095Y-104140000D01*
X154637619Y-104200476D01*
X154577143Y-104321429D01*
X154577143Y-104623810D01*
X154637619Y-104744762D01*
X154698095Y-104805238D01*
X154819048Y-104865714D01*
X155060952Y-104865714D01*
X155181905Y-104805238D01*
X155242381Y-104744762D01*
X155302857Y-104623810D01*
X149497143Y-114112524D02*
X149497143Y-115140619D01*
X149551571Y-115261571D01*
X149606000Y-115322048D01*
X149714857Y-115382524D01*
X149932571Y-115382524D01*
X150041429Y-115322048D01*
X150095857Y-115261571D01*
X150150286Y-115140619D01*
X150150286Y-114112524D01*
X151293286Y-115382524D02*
X150640143Y-115382524D01*
X150966715Y-115382524D02*
X150966715Y-114112524D01*
X150857858Y-114293952D01*
X150749000Y-114414905D01*
X150640143Y-114475381D01*
X148777476Y-109159524D02*
X148293667Y-109159524D01*
X148293667Y-107889524D01*
X149116143Y-109159524D02*
X149116143Y-107889524D01*
X149454809Y-108796667D01*
X149793476Y-107889524D01*
X149793476Y-109159524D01*
X150228905Y-108010476D02*
X150277286Y-107950000D01*
X150374048Y-107889524D01*
X150615952Y-107889524D01*
X150712714Y-107950000D01*
X150761095Y-108010476D01*
X150809476Y-108131429D01*
X150809476Y-108252381D01*
X150761095Y-108433810D01*
X150180524Y-109159524D01*
X150809476Y-109159524D01*
X151293286Y-109159524D02*
X151486810Y-109159524D01*
X151583571Y-109099048D01*
X151631952Y-109038571D01*
X151728714Y-108857143D01*
X151777095Y-108615238D01*
X151777095Y-108131429D01*
X151728714Y-108010476D01*
X151680333Y-107950000D01*
X151583571Y-107889524D01*
X151390048Y-107889524D01*
X151293286Y-107950000D01*
X151244905Y-108010476D01*
X151196524Y-108131429D01*
X151196524Y-108433810D01*
X151244905Y-108554762D01*
X151293286Y-108615238D01*
X151390048Y-108675714D01*
X151583571Y-108675714D01*
X151680333Y-108615238D01*
X151728714Y-108554762D01*
X151777095Y-108433810D01*
X152115762Y-107889524D02*
X152744714Y-107889524D01*
X152406048Y-108373333D01*
X152551190Y-108373333D01*
X152647952Y-108433810D01*
X152696333Y-108494286D01*
X152744714Y-108615238D01*
X152744714Y-108917619D01*
X152696333Y-109038571D01*
X152647952Y-109099048D01*
X152551190Y-109159524D01*
X152260905Y-109159524D01*
X152164143Y-109099048D01*
X152115762Y-109038571D01*
X145620619Y-105222524D02*
X145620619Y-103952524D01*
X146104428Y-103952524D01*
X146225381Y-104013000D01*
X146285857Y-104073476D01*
X146346333Y-104194429D01*
X146346333Y-104375857D01*
X146285857Y-104496810D01*
X146225381Y-104557286D01*
X146104428Y-104617762D01*
X145620619Y-104617762D01*
X146769667Y-103952524D02*
X147555857Y-103952524D01*
X147132524Y-104436333D01*
X147313952Y-104436333D01*
X147434905Y-104496810D01*
X147495381Y-104557286D01*
X147555857Y-104678238D01*
X147555857Y-104980619D01*
X147495381Y-105101571D01*
X147434905Y-105162048D01*
X147313952Y-105222524D01*
X146951095Y-105222524D01*
X146830143Y-105162048D01*
X146769667Y-105101571D01*
D18*
X137885714Y-110417428D02*
X137123714Y-110417428D01*
X137123714Y-110236000D01*
X137160000Y-110127143D01*
X137232571Y-110054571D01*
X137305143Y-110018286D01*
X137450286Y-109982000D01*
X137559143Y-109982000D01*
X137704286Y-110018286D01*
X137776857Y-110054571D01*
X137849429Y-110127143D01*
X137885714Y-110236000D01*
X137885714Y-110417428D01*
X137885714Y-109256286D02*
X137885714Y-109691714D01*
X137885714Y-109474000D02*
X137123714Y-109474000D01*
X137232571Y-109546571D01*
X137305143Y-109619143D01*
X137341429Y-109691714D01*
X143473714Y-110344857D02*
X143473714Y-110707714D01*
X142711714Y-110707714D01*
X143074571Y-110090857D02*
X143074571Y-109836857D01*
X143473714Y-109728000D02*
X143473714Y-110090857D01*
X142711714Y-110090857D01*
X142711714Y-109728000D01*
X143473714Y-109401428D02*
X142711714Y-109401428D01*
X142711714Y-109220000D01*
X142748000Y-109111143D01*
X142820571Y-109038571D01*
X142893143Y-109002286D01*
X143038286Y-108966000D01*
X143147143Y-108966000D01*
X143292286Y-109002286D01*
X143364857Y-109038571D01*
X143437429Y-109111143D01*
X143473714Y-109220000D01*
X143473714Y-109401428D01*
D12*
X138390334Y-105989381D02*
X138057000Y-105513190D01*
X137818905Y-105989381D02*
X137818905Y-104989381D01*
X138199858Y-104989381D01*
X138295096Y-105037000D01*
X138342715Y-105084619D01*
X138390334Y-105179857D01*
X138390334Y-105322714D01*
X138342715Y-105417952D01*
X138295096Y-105465571D01*
X138199858Y-105513190D01*
X137818905Y-105513190D01*
X138771286Y-105084619D02*
X138818905Y-105037000D01*
X138914143Y-104989381D01*
X139152239Y-104989381D01*
X139247477Y-105037000D01*
X139295096Y-105084619D01*
X139342715Y-105179857D01*
X139342715Y-105275095D01*
X139295096Y-105417952D01*
X138723667Y-105989381D01*
X139342715Y-105989381D01*
X141065334Y-105989381D02*
X140493905Y-105989381D01*
X140779619Y-105989381D02*
X140779619Y-104989381D01*
X140684381Y-105132238D01*
X140589143Y-105227476D01*
X140493905Y-105275095D01*
X141684381Y-104989381D02*
X141779620Y-104989381D01*
X141874858Y-105037000D01*
X141922477Y-105084619D01*
X141970096Y-105179857D01*
X142017715Y-105370333D01*
X142017715Y-105608429D01*
X141970096Y-105798905D01*
X141922477Y-105894143D01*
X141874858Y-105941762D01*
X141779620Y-105989381D01*
X141684381Y-105989381D01*
X141589143Y-105941762D01*
X141541524Y-105894143D01*
X141493905Y-105798905D01*
X141446286Y-105608429D01*
X141446286Y-105370333D01*
X141493905Y-105179857D01*
X141541524Y-105084619D01*
X141589143Y-105037000D01*
X141684381Y-104989381D01*
X142636762Y-104989381D02*
X142732001Y-104989381D01*
X142827239Y-105037000D01*
X142874858Y-105084619D01*
X142922477Y-105179857D01*
X142970096Y-105370333D01*
X142970096Y-105608429D01*
X142922477Y-105798905D01*
X142874858Y-105894143D01*
X142827239Y-105941762D01*
X142732001Y-105989381D01*
X142636762Y-105989381D01*
X142541524Y-105941762D01*
X142493905Y-105894143D01*
X142446286Y-105798905D01*
X142398667Y-105608429D01*
X142398667Y-105370333D01*
X142446286Y-105179857D01*
X142493905Y-105084619D01*
X142541524Y-105037000D01*
X142636762Y-104989381D01*
D16*
X136579429Y-117112143D02*
X135853714Y-117620143D01*
X136579429Y-117983000D02*
X135055429Y-117983000D01*
X135055429Y-117402428D01*
X135128000Y-117257286D01*
X135200571Y-117184714D01*
X135345714Y-117112143D01*
X135563429Y-117112143D01*
X135708571Y-117184714D01*
X135781143Y-117257286D01*
X135853714Y-117402428D01*
X135853714Y-117983000D01*
X135055429Y-116676714D02*
X136579429Y-116168714D01*
X135055429Y-115660714D01*
X136579429Y-114354428D02*
X136579429Y-115225285D01*
X136579429Y-114789857D02*
X135055429Y-114789857D01*
X135273143Y-114935000D01*
X135418286Y-115080142D01*
X135490857Y-115225285D01*
D18*
X163158714Y-110417428D02*
X162396714Y-110417428D01*
X162396714Y-110236000D01*
X162433000Y-110127143D01*
X162505571Y-110054571D01*
X162578143Y-110018286D01*
X162723286Y-109982000D01*
X162832143Y-109982000D01*
X162977286Y-110018286D01*
X163049857Y-110054571D01*
X163122429Y-110127143D01*
X163158714Y-110236000D01*
X163158714Y-110417428D01*
X162469286Y-109691714D02*
X162433000Y-109655428D01*
X162396714Y-109582857D01*
X162396714Y-109401428D01*
X162433000Y-109328857D01*
X162469286Y-109292571D01*
X162541857Y-109256286D01*
X162614429Y-109256286D01*
X162723286Y-109292571D01*
X163158714Y-109728000D01*
X163158714Y-109256286D01*
X157570714Y-110344857D02*
X157570714Y-110707714D01*
X156808714Y-110707714D01*
X157171571Y-110090857D02*
X157171571Y-109836857D01*
X157570714Y-109728000D02*
X157570714Y-110090857D01*
X156808714Y-110090857D01*
X156808714Y-109728000D01*
X157570714Y-109401428D02*
X156808714Y-109401428D01*
X156808714Y-109220000D01*
X156845000Y-109111143D01*
X156917571Y-109038571D01*
X156990143Y-109002286D01*
X157135286Y-108966000D01*
X157244143Y-108966000D01*
X157389286Y-109002286D01*
X157461857Y-109038571D01*
X157534429Y-109111143D01*
X157570714Y-109220000D01*
X157570714Y-109401428D01*
D16*
X165281429Y-116985143D02*
X164555714Y-117493143D01*
X165281429Y-117856000D02*
X163757429Y-117856000D01*
X163757429Y-117275428D01*
X163830000Y-117130286D01*
X163902571Y-117057714D01*
X164047714Y-116985143D01*
X164265429Y-116985143D01*
X164410571Y-117057714D01*
X164483143Y-117130286D01*
X164555714Y-117275428D01*
X164555714Y-117856000D01*
X163757429Y-116549714D02*
X165281429Y-116041714D01*
X163757429Y-115533714D01*
X163902571Y-115098285D02*
X163830000Y-115025714D01*
X163757429Y-114880571D01*
X163757429Y-114517714D01*
X163830000Y-114372571D01*
X163902571Y-114300000D01*
X164047714Y-114227428D01*
X164192857Y-114227428D01*
X164410571Y-114300000D01*
X165281429Y-115170857D01*
X165281429Y-114227428D01*
D12*
X128103334Y-105862381D02*
X127770000Y-105386190D01*
X127531905Y-105862381D02*
X127531905Y-104862381D01*
X127912858Y-104862381D01*
X128008096Y-104910000D01*
X128055715Y-104957619D01*
X128103334Y-105052857D01*
X128103334Y-105195714D01*
X128055715Y-105290952D01*
X128008096Y-105338571D01*
X127912858Y-105386190D01*
X127531905Y-105386190D01*
X129055715Y-105862381D02*
X128484286Y-105862381D01*
X128770000Y-105862381D02*
X128770000Y-104862381D01*
X128674762Y-105005238D01*
X128579524Y-105100476D01*
X128484286Y-105148095D01*
X132048334Y-105862381D02*
X131476905Y-105862381D01*
X131762619Y-105862381D02*
X131762619Y-104862381D01*
X131667381Y-105005238D01*
X131572143Y-105100476D01*
X131476905Y-105148095D01*
X132667381Y-104862381D02*
X132762620Y-104862381D01*
X132857858Y-104910000D01*
X132905477Y-104957619D01*
X132953096Y-105052857D01*
X133000715Y-105243333D01*
X133000715Y-105481429D01*
X132953096Y-105671905D01*
X132905477Y-105767143D01*
X132857858Y-105814762D01*
X132762620Y-105862381D01*
X132667381Y-105862381D01*
X132572143Y-105814762D01*
X132524524Y-105767143D01*
X132476905Y-105671905D01*
X132429286Y-105481429D01*
X132429286Y-105243333D01*
X132476905Y-105052857D01*
X132524524Y-104957619D01*
X132572143Y-104910000D01*
X132667381Y-104862381D01*
X133619762Y-104862381D02*
X133715001Y-104862381D01*
X133810239Y-104910000D01*
X133857858Y-104957619D01*
X133905477Y-105052857D01*
X133953096Y-105243333D01*
X133953096Y-105481429D01*
X133905477Y-105671905D01*
X133857858Y-105767143D01*
X133810239Y-105814762D01*
X133715001Y-105862381D01*
X133619762Y-105862381D01*
X133524524Y-105814762D01*
X133476905Y-105767143D01*
X133429286Y-105671905D01*
X133381667Y-105481429D01*
X133381667Y-105243333D01*
X133429286Y-105052857D01*
X133476905Y-104957619D01*
X133524524Y-104910000D01*
X133619762Y-104862381D01*
D17*
X148922619Y-92014524D02*
X148922619Y-90744524D01*
X149406428Y-90744524D01*
X149527381Y-90805000D01*
X149587857Y-90865476D01*
X149648333Y-90986429D01*
X149648333Y-91167857D01*
X149587857Y-91288810D01*
X149527381Y-91349286D01*
X149406428Y-91409762D01*
X148922619Y-91409762D01*
X150797381Y-90744524D02*
X150192619Y-90744524D01*
X150132143Y-91349286D01*
X150192619Y-91288810D01*
X150313571Y-91228333D01*
X150615952Y-91228333D01*
X150736905Y-91288810D01*
X150797381Y-91349286D01*
X150857857Y-91470238D01*
X150857857Y-91772619D01*
X150797381Y-91893571D01*
X150736905Y-91954048D01*
X150615952Y-92014524D01*
X150313571Y-92014524D01*
X150192619Y-91954048D01*
X150132143Y-91893571D01*
X138762619Y-92014524D02*
X138762619Y-90744524D01*
X139246428Y-90744524D01*
X139367381Y-90805000D01*
X139427857Y-90865476D01*
X139488333Y-90986429D01*
X139488333Y-91167857D01*
X139427857Y-91288810D01*
X139367381Y-91349286D01*
X139246428Y-91409762D01*
X138762619Y-91409762D01*
X140576905Y-91167857D02*
X140576905Y-92014524D01*
X140274524Y-90684048D02*
X139972143Y-91591190D01*
X140758333Y-91591190D01*
D12*
X128103334Y-109672381D02*
X127770000Y-109196190D01*
X127531905Y-109672381D02*
X127531905Y-108672381D01*
X127912858Y-108672381D01*
X128008096Y-108720000D01*
X128055715Y-108767619D01*
X128103334Y-108862857D01*
X128103334Y-109005714D01*
X128055715Y-109100952D01*
X128008096Y-109148571D01*
X127912858Y-109196190D01*
X127531905Y-109196190D01*
X128436667Y-108672381D02*
X129055715Y-108672381D01*
X128722381Y-109053333D01*
X128865239Y-109053333D01*
X128960477Y-109100952D01*
X129008096Y-109148571D01*
X129055715Y-109243810D01*
X129055715Y-109481905D01*
X129008096Y-109577143D01*
X128960477Y-109624762D01*
X128865239Y-109672381D01*
X128579524Y-109672381D01*
X128484286Y-109624762D01*
X128436667Y-109577143D01*
X130794286Y-108672381D02*
X131413334Y-108672381D01*
X131080000Y-109053333D01*
X131222858Y-109053333D01*
X131318096Y-109100952D01*
X131365715Y-109148571D01*
X131413334Y-109243810D01*
X131413334Y-109481905D01*
X131365715Y-109577143D01*
X131318096Y-109624762D01*
X131222858Y-109672381D01*
X130937143Y-109672381D01*
X130841905Y-109624762D01*
X130794286Y-109577143D01*
X131746667Y-108672381D02*
X132365715Y-108672381D01*
X132032381Y-109053333D01*
X132175239Y-109053333D01*
X132270477Y-109100952D01*
X132318096Y-109148571D01*
X132365715Y-109243810D01*
X132365715Y-109481905D01*
X132318096Y-109577143D01*
X132270477Y-109624762D01*
X132175239Y-109672381D01*
X131889524Y-109672381D01*
X131794286Y-109624762D01*
X131746667Y-109577143D01*
X132984762Y-108672381D02*
X133080001Y-108672381D01*
X133175239Y-108720000D01*
X133222858Y-108767619D01*
X133270477Y-108862857D01*
X133318096Y-109053333D01*
X133318096Y-109291429D01*
X133270477Y-109481905D01*
X133222858Y-109577143D01*
X133175239Y-109624762D01*
X133080001Y-109672381D01*
X132984762Y-109672381D01*
X132889524Y-109624762D01*
X132841905Y-109577143D01*
X132794286Y-109481905D01*
X132746667Y-109291429D01*
X132746667Y-109053333D01*
X132794286Y-108862857D01*
X132841905Y-108767619D01*
X132889524Y-108720000D01*
X132984762Y-108672381D01*
X167473334Y-105862381D02*
X167140000Y-105386190D01*
X166901905Y-105862381D02*
X166901905Y-104862381D01*
X167282858Y-104862381D01*
X167378096Y-104910000D01*
X167425715Y-104957619D01*
X167473334Y-105052857D01*
X167473334Y-105195714D01*
X167425715Y-105290952D01*
X167378096Y-105338571D01*
X167282858Y-105386190D01*
X166901905Y-105386190D01*
X168330477Y-105195714D02*
X168330477Y-105862381D01*
X168092381Y-104814762D02*
X167854286Y-105529048D01*
X168473334Y-105529048D01*
X171418334Y-105862381D02*
X170846905Y-105862381D01*
X171132619Y-105862381D02*
X171132619Y-104862381D01*
X171037381Y-105005238D01*
X170942143Y-105100476D01*
X170846905Y-105148095D01*
X172037381Y-104862381D02*
X172132620Y-104862381D01*
X172227858Y-104910000D01*
X172275477Y-104957619D01*
X172323096Y-105052857D01*
X172370715Y-105243333D01*
X172370715Y-105481429D01*
X172323096Y-105671905D01*
X172275477Y-105767143D01*
X172227858Y-105814762D01*
X172132620Y-105862381D01*
X172037381Y-105862381D01*
X171942143Y-105814762D01*
X171894524Y-105767143D01*
X171846905Y-105671905D01*
X171799286Y-105481429D01*
X171799286Y-105243333D01*
X171846905Y-105052857D01*
X171894524Y-104957619D01*
X171942143Y-104910000D01*
X172037381Y-104862381D01*
X172989762Y-104862381D02*
X173085001Y-104862381D01*
X173180239Y-104910000D01*
X173227858Y-104957619D01*
X173275477Y-105052857D01*
X173323096Y-105243333D01*
X173323096Y-105481429D01*
X173275477Y-105671905D01*
X173227858Y-105767143D01*
X173180239Y-105814762D01*
X173085001Y-105862381D01*
X172989762Y-105862381D01*
X172894524Y-105814762D01*
X172846905Y-105767143D01*
X172799286Y-105671905D01*
X172751667Y-105481429D01*
X172751667Y-105243333D01*
X172799286Y-105052857D01*
X172846905Y-104957619D01*
X172894524Y-104910000D01*
X172989762Y-104862381D01*
X161758334Y-105989381D02*
X161425000Y-105513190D01*
X161186905Y-105989381D02*
X161186905Y-104989381D01*
X161567858Y-104989381D01*
X161663096Y-105037000D01*
X161710715Y-105084619D01*
X161758334Y-105179857D01*
X161758334Y-105322714D01*
X161710715Y-105417952D01*
X161663096Y-105465571D01*
X161567858Y-105513190D01*
X161186905Y-105513190D01*
X162663096Y-104989381D02*
X162186905Y-104989381D01*
X162139286Y-105465571D01*
X162186905Y-105417952D01*
X162282143Y-105370333D01*
X162520239Y-105370333D01*
X162615477Y-105417952D01*
X162663096Y-105465571D01*
X162710715Y-105560810D01*
X162710715Y-105798905D01*
X162663096Y-105894143D01*
X162615477Y-105941762D01*
X162520239Y-105989381D01*
X162282143Y-105989381D01*
X162186905Y-105941762D01*
X162139286Y-105894143D01*
X157448334Y-105989381D02*
X156876905Y-105989381D01*
X157162619Y-105989381D02*
X157162619Y-104989381D01*
X157067381Y-105132238D01*
X156972143Y-105227476D01*
X156876905Y-105275095D01*
X158067381Y-104989381D02*
X158162620Y-104989381D01*
X158257858Y-105037000D01*
X158305477Y-105084619D01*
X158353096Y-105179857D01*
X158400715Y-105370333D01*
X158400715Y-105608429D01*
X158353096Y-105798905D01*
X158305477Y-105894143D01*
X158257858Y-105941762D01*
X158162620Y-105989381D01*
X158067381Y-105989381D01*
X157972143Y-105941762D01*
X157924524Y-105894143D01*
X157876905Y-105798905D01*
X157829286Y-105608429D01*
X157829286Y-105370333D01*
X157876905Y-105179857D01*
X157924524Y-105084619D01*
X157972143Y-105037000D01*
X158067381Y-104989381D01*
X159019762Y-104989381D02*
X159115001Y-104989381D01*
X159210239Y-105037000D01*
X159257858Y-105084619D01*
X159305477Y-105179857D01*
X159353096Y-105370333D01*
X159353096Y-105608429D01*
X159305477Y-105798905D01*
X159257858Y-105894143D01*
X159210239Y-105941762D01*
X159115001Y-105989381D01*
X159019762Y-105989381D01*
X158924524Y-105941762D01*
X158876905Y-105894143D01*
X158829286Y-105798905D01*
X158781667Y-105608429D01*
X158781667Y-105370333D01*
X158829286Y-105179857D01*
X158876905Y-105084619D01*
X158924524Y-105037000D01*
X159019762Y-104989381D01*
D17*
X126062619Y-98999524D02*
X126062619Y-97729524D01*
X126546428Y-97729524D01*
X126667381Y-97790000D01*
X126727857Y-97850476D01*
X126788333Y-97971429D01*
X126788333Y-98152857D01*
X126727857Y-98273810D01*
X126667381Y-98334286D01*
X126546428Y-98394762D01*
X126062619Y-98394762D01*
X127997857Y-98999524D02*
X127272143Y-98999524D01*
X127635000Y-98999524D02*
X127635000Y-97729524D01*
X127514048Y-97910952D01*
X127393095Y-98031905D01*
X127272143Y-98092381D01*
X131777619Y-98999524D02*
X131777619Y-97729524D01*
X132261428Y-97729524D01*
X132382381Y-97790000D01*
X132442857Y-97850476D01*
X132503333Y-97971429D01*
X132503333Y-98152857D01*
X132442857Y-98273810D01*
X132382381Y-98334286D01*
X132261428Y-98394762D01*
X131777619Y-98394762D01*
X132987143Y-97850476D02*
X133047619Y-97790000D01*
X133168571Y-97729524D01*
X133470952Y-97729524D01*
X133591905Y-97790000D01*
X133652381Y-97850476D01*
X133712857Y-97971429D01*
X133712857Y-98092381D01*
X133652381Y-98273810D01*
X132926667Y-98999524D01*
X133712857Y-98999524D01*
X169312619Y-98824524D02*
X169312619Y-97554524D01*
X169796428Y-97554524D01*
X169917381Y-97615000D01*
X169977857Y-97675476D01*
X170038333Y-97796429D01*
X170038333Y-97977857D01*
X169977857Y-98098810D01*
X169917381Y-98159286D01*
X169796428Y-98219762D01*
X169312619Y-98219762D01*
X171126905Y-97554524D02*
X170885000Y-97554524D01*
X170764048Y-97615000D01*
X170703571Y-97675476D01*
X170582619Y-97856905D01*
X170522143Y-98098810D01*
X170522143Y-98582619D01*
X170582619Y-98703571D01*
X170643095Y-98764048D01*
X170764048Y-98824524D01*
X171005952Y-98824524D01*
X171126905Y-98764048D01*
X171187381Y-98703571D01*
X171247857Y-98582619D01*
X171247857Y-98280238D01*
X171187381Y-98159286D01*
X171126905Y-98098810D01*
X171005952Y-98038333D01*
X170764048Y-98038333D01*
X170643095Y-98098810D01*
X170582619Y-98159286D01*
X170522143Y-98280238D01*
X163562619Y-98824524D02*
X163562619Y-97554524D01*
X164046428Y-97554524D01*
X164167381Y-97615000D01*
X164227857Y-97675476D01*
X164288333Y-97796429D01*
X164288333Y-97977857D01*
X164227857Y-98098810D01*
X164167381Y-98159286D01*
X164046428Y-98219762D01*
X163562619Y-98219762D01*
X165014048Y-98098810D02*
X164893095Y-98038333D01*
X164832619Y-97977857D01*
X164772143Y-97856905D01*
X164772143Y-97796429D01*
X164832619Y-97675476D01*
X164893095Y-97615000D01*
X165014048Y-97554524D01*
X165255952Y-97554524D01*
X165376905Y-97615000D01*
X165437381Y-97675476D01*
X165497857Y-97796429D01*
X165497857Y-97856905D01*
X165437381Y-97977857D01*
X165376905Y-98038333D01*
X165255952Y-98098810D01*
X165014048Y-98098810D01*
X164893095Y-98159286D01*
X164832619Y-98219762D01*
X164772143Y-98340714D01*
X164772143Y-98582619D01*
X164832619Y-98703571D01*
X164893095Y-98764048D01*
X165014048Y-98824524D01*
X165255952Y-98824524D01*
X165376905Y-98764048D01*
X165437381Y-98703571D01*
X165497857Y-98582619D01*
X165497857Y-98340714D01*
X165437381Y-98219762D01*
X165376905Y-98159286D01*
X165255952Y-98098810D01*
M02*
