%FSLAX46Y46*%
G04 Gerber Fmt 4.6, Leading zero omitted, Abs format (unit mm)*
G04 Created by KiCad (PCBNEW (2014-09-25 BZR 5147)-product) date vr 26 sep 2014 03:31:45 CEST*
%MOMM*%
G01*
G04 APERTURE LIST*
%ADD10C,0.100000*%
%ADD11C,0.250000*%
%ADD12C,0.300000*%
%ADD13C,0.150000*%
%ADD14C,0.381000*%
%ADD15C,0.066040*%
%ADD16C,0.101600*%
%ADD17C,0.254000*%
%ADD18C,0.127000*%
%ADD19C,0.203200*%
%ADD20C,0.088900*%
%ADD21C,0.125000*%
G04 APERTURE END LIST*
D10*
D11*
X103918428Y-88304714D02*
X103918428Y-89304714D01*
X103918428Y-88352333D02*
X104013666Y-88304714D01*
X104204143Y-88304714D01*
X104299381Y-88352333D01*
X104347000Y-88399952D01*
X104394619Y-88495190D01*
X104394619Y-88780905D01*
X104347000Y-88876143D01*
X104299381Y-88923762D01*
X104204143Y-88971381D01*
X104013666Y-88971381D01*
X103918428Y-88923762D01*
X104823190Y-88971381D02*
X104823190Y-87971381D01*
X105251762Y-88971381D02*
X105251762Y-88447571D01*
X105204143Y-88352333D01*
X105108905Y-88304714D01*
X104966047Y-88304714D01*
X104870809Y-88352333D01*
X104823190Y-88399952D01*
X105870809Y-88971381D02*
X105775571Y-88923762D01*
X105727952Y-88876143D01*
X105680333Y-88780905D01*
X105680333Y-88495190D01*
X105727952Y-88399952D01*
X105775571Y-88352333D01*
X105870809Y-88304714D01*
X106013667Y-88304714D01*
X106108905Y-88352333D01*
X106156524Y-88399952D01*
X106204143Y-88495190D01*
X106204143Y-88780905D01*
X106156524Y-88876143D01*
X106108905Y-88923762D01*
X106013667Y-88971381D01*
X105870809Y-88971381D01*
X106489857Y-88304714D02*
X106870809Y-88304714D01*
X106632714Y-87971381D02*
X106632714Y-88828524D01*
X106680333Y-88923762D01*
X106775571Y-88971381D01*
X106870809Y-88971381D01*
X107347000Y-88971381D02*
X107251762Y-88923762D01*
X107204143Y-88876143D01*
X107156524Y-88780905D01*
X107156524Y-88495190D01*
X107204143Y-88399952D01*
X107251762Y-88352333D01*
X107347000Y-88304714D01*
X107489858Y-88304714D01*
X107585096Y-88352333D01*
X107632715Y-88399952D01*
X107680334Y-88495190D01*
X107680334Y-88780905D01*
X107632715Y-88876143D01*
X107585096Y-88923762D01*
X107489858Y-88971381D01*
X107347000Y-88971381D01*
X108537477Y-88304714D02*
X108537477Y-89114238D01*
X108489858Y-89209476D01*
X108442239Y-89257095D01*
X108347000Y-89304714D01*
X108204143Y-89304714D01*
X108108905Y-89257095D01*
X108537477Y-88923762D02*
X108442239Y-88971381D01*
X108251762Y-88971381D01*
X108156524Y-88923762D01*
X108108905Y-88876143D01*
X108061286Y-88780905D01*
X108061286Y-88495190D01*
X108108905Y-88399952D01*
X108156524Y-88352333D01*
X108251762Y-88304714D01*
X108442239Y-88304714D01*
X108537477Y-88352333D01*
X109442239Y-88971381D02*
X109442239Y-88447571D01*
X109394620Y-88352333D01*
X109299382Y-88304714D01*
X109108905Y-88304714D01*
X109013667Y-88352333D01*
X109442239Y-88923762D02*
X109347001Y-88971381D01*
X109108905Y-88971381D01*
X109013667Y-88923762D01*
X108966048Y-88828524D01*
X108966048Y-88733286D01*
X109013667Y-88638048D01*
X109108905Y-88590429D01*
X109347001Y-88590429D01*
X109442239Y-88542810D01*
X109775572Y-88304714D02*
X110156524Y-88304714D01*
X109918429Y-87971381D02*
X109918429Y-88828524D01*
X109966048Y-88923762D01*
X110061286Y-88971381D01*
X110156524Y-88971381D01*
X110870811Y-88923762D02*
X110775573Y-88971381D01*
X110585096Y-88971381D01*
X110489858Y-88923762D01*
X110442239Y-88828524D01*
X110442239Y-88447571D01*
X110489858Y-88352333D01*
X110585096Y-88304714D01*
X110775573Y-88304714D01*
X110870811Y-88352333D01*
X110918430Y-88447571D01*
X110918430Y-88542810D01*
X110442239Y-88638048D01*
X112013668Y-88304714D02*
X112251763Y-88971381D01*
X112489859Y-88304714D01*
X113394621Y-88971381D02*
X112823192Y-88971381D01*
X113108906Y-88971381D02*
X113108906Y-87971381D01*
X113013668Y-88114238D01*
X112918430Y-88209476D01*
X112823192Y-88257095D01*
X113823192Y-88876143D02*
X113870811Y-88923762D01*
X113823192Y-88971381D01*
X113775573Y-88923762D01*
X113823192Y-88876143D01*
X113823192Y-88971381D01*
X114489858Y-87971381D02*
X114585097Y-87971381D01*
X114680335Y-88019000D01*
X114727954Y-88066619D01*
X114775573Y-88161857D01*
X114823192Y-88352333D01*
X114823192Y-88590429D01*
X114775573Y-88780905D01*
X114727954Y-88876143D01*
X114680335Y-88923762D01*
X114585097Y-88971381D01*
X114489858Y-88971381D01*
X114394620Y-88923762D01*
X114347001Y-88876143D01*
X114299382Y-88780905D01*
X114251763Y-88590429D01*
X114251763Y-88352333D01*
X114299382Y-88161857D01*
X114347001Y-88066619D01*
X114394620Y-88019000D01*
X114489858Y-87971381D01*
X122920380Y-75588762D02*
X123015618Y-75636381D01*
X123206094Y-75636381D01*
X123301333Y-75588762D01*
X123348952Y-75493524D01*
X123348952Y-75445905D01*
X123301333Y-75350667D01*
X123206094Y-75303048D01*
X123063237Y-75303048D01*
X122967999Y-75255429D01*
X122920380Y-75160190D01*
X122920380Y-75112571D01*
X122967999Y-75017333D01*
X123063237Y-74969714D01*
X123206094Y-74969714D01*
X123301333Y-75017333D01*
X124158476Y-75588762D02*
X124063238Y-75636381D01*
X123872761Y-75636381D01*
X123777523Y-75588762D01*
X123729904Y-75493524D01*
X123729904Y-75112571D01*
X123777523Y-75017333D01*
X123872761Y-74969714D01*
X124063238Y-74969714D01*
X124158476Y-75017333D01*
X124206095Y-75112571D01*
X124206095Y-75207810D01*
X123729904Y-75303048D01*
X124777523Y-75636381D02*
X124682285Y-75588762D01*
X124634666Y-75493524D01*
X124634666Y-74636381D01*
X125539429Y-75588762D02*
X125444191Y-75636381D01*
X125253714Y-75636381D01*
X125158476Y-75588762D01*
X125110857Y-75493524D01*
X125110857Y-75112571D01*
X125158476Y-75017333D01*
X125253714Y-74969714D01*
X125444191Y-74969714D01*
X125539429Y-75017333D01*
X125587048Y-75112571D01*
X125587048Y-75207810D01*
X125110857Y-75303048D01*
X126444191Y-75588762D02*
X126348953Y-75636381D01*
X126158476Y-75636381D01*
X126063238Y-75588762D01*
X126015619Y-75541143D01*
X125968000Y-75445905D01*
X125968000Y-75160190D01*
X126015619Y-75064952D01*
X126063238Y-75017333D01*
X126158476Y-74969714D01*
X126348953Y-74969714D01*
X126444191Y-75017333D01*
X126729905Y-74969714D02*
X127110857Y-74969714D01*
X126872762Y-74636381D02*
X126872762Y-75493524D01*
X126920381Y-75588762D01*
X127015619Y-75636381D01*
X127110857Y-75636381D01*
D12*
X128666857Y-73517143D02*
X128952571Y-73612381D01*
X129047810Y-73707619D01*
X129143048Y-73898095D01*
X129143048Y-74183810D01*
X129047810Y-74374286D01*
X128952571Y-74469524D01*
X128762095Y-74564762D01*
X128000190Y-74564762D01*
X128000190Y-72564762D01*
X128666857Y-72564762D01*
X128857333Y-72660000D01*
X128952571Y-72755238D01*
X129047810Y-72945714D01*
X129047810Y-73136190D01*
X128952571Y-73326667D01*
X128857333Y-73421905D01*
X128666857Y-73517143D01*
X128000190Y-73517143D01*
X120935809Y-73993333D02*
X121888190Y-73993333D01*
X120745333Y-74564762D02*
X121412000Y-72564762D01*
X122078667Y-74564762D01*
X128333524Y-69865905D02*
X128143048Y-69770667D01*
X128047809Y-69675429D01*
X127952571Y-69484952D01*
X127952571Y-69389714D01*
X128047809Y-69199238D01*
X128143048Y-69104000D01*
X128333524Y-69008762D01*
X128714476Y-69008762D01*
X128904952Y-69104000D01*
X129000190Y-69199238D01*
X129095429Y-69389714D01*
X129095429Y-69484952D01*
X129000190Y-69675429D01*
X128904952Y-69770667D01*
X128714476Y-69865905D01*
X128333524Y-69865905D01*
X128143048Y-69961143D01*
X128047809Y-70056381D01*
X127952571Y-70246857D01*
X127952571Y-70627810D01*
X128047809Y-70818286D01*
X128143048Y-70913524D01*
X128333524Y-71008762D01*
X128714476Y-71008762D01*
X128904952Y-70913524D01*
X129000190Y-70818286D01*
X129095429Y-70627810D01*
X129095429Y-70246857D01*
X129000190Y-70056381D01*
X128904952Y-69961143D01*
X128714476Y-69865905D01*
X120745333Y-69008762D02*
X122078667Y-69008762D01*
X121221524Y-71008762D01*
X128904952Y-66468762D02*
X128524000Y-66468762D01*
X128333524Y-66564000D01*
X128238286Y-66659238D01*
X128047809Y-66944952D01*
X127952571Y-67325905D01*
X127952571Y-68087810D01*
X128047809Y-68278286D01*
X128143048Y-68373524D01*
X128333524Y-68468762D01*
X128714476Y-68468762D01*
X128904952Y-68373524D01*
X129000190Y-68278286D01*
X129095429Y-68087810D01*
X129095429Y-67611619D01*
X129000190Y-67421143D01*
X128904952Y-67325905D01*
X128714476Y-67230667D01*
X128333524Y-67230667D01*
X128143048Y-67325905D01*
X128047809Y-67421143D01*
X127952571Y-67611619D01*
X121888190Y-66468762D02*
X120935809Y-66468762D01*
X120840571Y-67421143D01*
X120935809Y-67325905D01*
X121126286Y-67230667D01*
X121602476Y-67230667D01*
X121792952Y-67325905D01*
X121888190Y-67421143D01*
X121983429Y-67611619D01*
X121983429Y-68087810D01*
X121888190Y-68278286D01*
X121792952Y-68373524D01*
X121602476Y-68468762D01*
X121126286Y-68468762D01*
X120935809Y-68373524D01*
X120840571Y-68278286D01*
X128904952Y-64595429D02*
X128904952Y-65928762D01*
X128428762Y-63833524D02*
X127952571Y-65262095D01*
X129190667Y-65262095D01*
X120745333Y-63928762D02*
X121983429Y-63928762D01*
X121316762Y-64690667D01*
X121602476Y-64690667D01*
X121792952Y-64785905D01*
X121888190Y-64881143D01*
X121983429Y-65071619D01*
X121983429Y-65547810D01*
X121888190Y-65738286D01*
X121792952Y-65833524D01*
X121602476Y-65928762D01*
X121031048Y-65928762D01*
X120840571Y-65833524D01*
X120745333Y-65738286D01*
X127952571Y-61579238D02*
X128047809Y-61484000D01*
X128238286Y-61388762D01*
X128714476Y-61388762D01*
X128904952Y-61484000D01*
X129000190Y-61579238D01*
X129095429Y-61769714D01*
X129095429Y-61960190D01*
X129000190Y-62245905D01*
X127857333Y-63388762D01*
X129095429Y-63388762D01*
X121983429Y-63388762D02*
X120840571Y-63388762D01*
X121412000Y-63388762D02*
X121412000Y-61388762D01*
X121221524Y-61674476D01*
X121031048Y-61864952D01*
X120840571Y-61960190D01*
D13*
X131136000Y-70104000D02*
X131136000Y-60104000D01*
X131136000Y-60104000D02*
X140136000Y-60104000D01*
X140136000Y-60104000D02*
X140136000Y-80104000D01*
X140136000Y-80104000D02*
X131136000Y-80104000D01*
X131136000Y-80104000D02*
X131136000Y-70104000D01*
X138176000Y-63754000D02*
X138176000Y-76454000D01*
X138176000Y-76454000D02*
X133096000Y-76454000D01*
X133096000Y-76454000D02*
X133096000Y-66294000D01*
X138176000Y-63754000D02*
X135636000Y-63754000D01*
X133096000Y-63754000D02*
X133096000Y-66294000D01*
X135636000Y-63754000D02*
X135636000Y-66294000D01*
X135636000Y-66294000D02*
X133096000Y-66294000D01*
X133096000Y-63754000D02*
X135636000Y-63754000D01*
D14*
X147286000Y-65000000D02*
G75*
G03X147286000Y-65000000I-2286000J0D01*
G74*
G01*
D15*
X116939060Y-82903060D02*
X116939060Y-82704940D01*
X116939060Y-82704940D02*
X116740940Y-82704940D01*
X116740940Y-82903060D02*
X116740940Y-82704940D01*
X116939060Y-82903060D02*
X116740940Y-82903060D01*
X117538500Y-82354420D02*
X117538500Y-82006440D01*
X117538500Y-82006440D02*
X117289580Y-82006440D01*
X117289580Y-82354420D02*
X117289580Y-82006440D01*
X117538500Y-82354420D02*
X117289580Y-82354420D01*
X117538500Y-82006440D02*
X117538500Y-81904840D01*
X117538500Y-81904840D02*
X116342160Y-81904840D01*
X116342160Y-82006440D02*
X116342160Y-81904840D01*
X117538500Y-82006440D02*
X116342160Y-82006440D01*
X116291360Y-82006440D02*
X116291360Y-81904840D01*
X116291360Y-81904840D02*
X116141500Y-81904840D01*
X116141500Y-82006440D02*
X116141500Y-81904840D01*
X116291360Y-82006440D02*
X116141500Y-82006440D01*
X117538500Y-83703160D02*
X117538500Y-83601560D01*
X117538500Y-83601560D02*
X116342160Y-83601560D01*
X116342160Y-83703160D02*
X116342160Y-83601560D01*
X117538500Y-83703160D02*
X116342160Y-83703160D01*
X116291360Y-83703160D02*
X116291360Y-83601560D01*
X116291360Y-83601560D02*
X116141500Y-83601560D01*
X116141500Y-83703160D02*
X116141500Y-83601560D01*
X116291360Y-83703160D02*
X116141500Y-83703160D01*
X117538500Y-82354420D02*
X117538500Y-82204560D01*
X117538500Y-82204560D02*
X117289580Y-82204560D01*
X117289580Y-82354420D02*
X117289580Y-82204560D01*
X117538500Y-82354420D02*
X117289580Y-82354420D01*
D16*
X117589300Y-81254600D02*
X117589300Y-84353400D01*
X117589300Y-84353400D02*
X116090700Y-84353400D01*
X116090700Y-84353400D02*
X116090700Y-81254600D01*
X116090700Y-81254600D02*
X117589300Y-81254600D01*
X117339354Y-83351262D02*
G75*
G03X117337840Y-82255360I-499354J547262D01*
G74*
G01*
X116341602Y-83352133D02*
G75*
G03X117337840Y-83352640I498398J548133D01*
G74*
G01*
X116340646Y-82256738D02*
G75*
G03X116342160Y-83352640I499354J-547262D01*
G74*
G01*
X117338398Y-82255867D02*
G75*
G03X116342160Y-82255360I-498398J-548133D01*
G74*
G01*
D15*
X133195060Y-82903060D02*
X133195060Y-82704940D01*
X133195060Y-82704940D02*
X132996940Y-82704940D01*
X132996940Y-82903060D02*
X132996940Y-82704940D01*
X133195060Y-82903060D02*
X132996940Y-82903060D01*
X133794500Y-82354420D02*
X133794500Y-82006440D01*
X133794500Y-82006440D02*
X133545580Y-82006440D01*
X133545580Y-82354420D02*
X133545580Y-82006440D01*
X133794500Y-82354420D02*
X133545580Y-82354420D01*
X133794500Y-82006440D02*
X133794500Y-81904840D01*
X133794500Y-81904840D02*
X132598160Y-81904840D01*
X132598160Y-82006440D02*
X132598160Y-81904840D01*
X133794500Y-82006440D02*
X132598160Y-82006440D01*
X132547360Y-82006440D02*
X132547360Y-81904840D01*
X132547360Y-81904840D02*
X132397500Y-81904840D01*
X132397500Y-82006440D02*
X132397500Y-81904840D01*
X132547360Y-82006440D02*
X132397500Y-82006440D01*
X133794500Y-83703160D02*
X133794500Y-83601560D01*
X133794500Y-83601560D02*
X132598160Y-83601560D01*
X132598160Y-83703160D02*
X132598160Y-83601560D01*
X133794500Y-83703160D02*
X132598160Y-83703160D01*
X132547360Y-83703160D02*
X132547360Y-83601560D01*
X132547360Y-83601560D02*
X132397500Y-83601560D01*
X132397500Y-83703160D02*
X132397500Y-83601560D01*
X132547360Y-83703160D02*
X132397500Y-83703160D01*
X133794500Y-82354420D02*
X133794500Y-82204560D01*
X133794500Y-82204560D02*
X133545580Y-82204560D01*
X133545580Y-82354420D02*
X133545580Y-82204560D01*
X133794500Y-82354420D02*
X133545580Y-82354420D01*
D16*
X133845300Y-81254600D02*
X133845300Y-84353400D01*
X133845300Y-84353400D02*
X132346700Y-84353400D01*
X132346700Y-84353400D02*
X132346700Y-81254600D01*
X132346700Y-81254600D02*
X133845300Y-81254600D01*
X133595354Y-83351262D02*
G75*
G03X133593840Y-82255360I-499354J547262D01*
G74*
G01*
X132597602Y-83352133D02*
G75*
G03X133593840Y-83352640I498398J548133D01*
G74*
G01*
X132596646Y-82256738D02*
G75*
G03X132598160Y-83352640I499354J-547262D01*
G74*
G01*
X133594398Y-82255867D02*
G75*
G03X132598160Y-82255360I-498398J-548133D01*
G74*
G01*
D13*
X96072000Y-79756000D02*
X104902000Y-79756000D01*
X96072000Y-77216000D02*
X96072000Y-79756000D01*
X104902000Y-77216000D02*
X96072000Y-77216000D01*
X104902000Y-77216000D02*
X104902000Y-79756000D01*
X104902000Y-74676000D02*
X104902000Y-77216000D01*
X104902000Y-74676000D02*
X96072000Y-77216000D01*
X96072000Y-74676000D02*
X104902000Y-77216000D01*
X104902000Y-74676000D02*
X96072000Y-74676000D01*
X96072000Y-74676000D02*
X96072000Y-77216000D01*
X96072000Y-77216000D02*
X104902000Y-77216000D01*
X96072000Y-74676000D02*
X104902000Y-74676000D01*
X96072000Y-72136000D02*
X96072000Y-74676000D01*
X104902000Y-72136000D02*
X96072000Y-72136000D01*
X104902000Y-72136000D02*
X104902000Y-74676000D01*
X104902000Y-69596000D02*
X104902000Y-72136000D01*
X104902000Y-69596000D02*
X96072000Y-72136000D01*
X96072000Y-69596000D02*
X104902000Y-72136000D01*
X104902000Y-69596000D02*
X96072000Y-69596000D01*
X96072000Y-69596000D02*
X96072000Y-72136000D01*
X96072000Y-72136000D02*
X104902000Y-72136000D01*
X109800000Y-70104000D02*
X109800000Y-60104000D01*
X109800000Y-60104000D02*
X118800000Y-60104000D01*
X118800000Y-60104000D02*
X118800000Y-80104000D01*
X118800000Y-80104000D02*
X109800000Y-80104000D01*
X109800000Y-80104000D02*
X109800000Y-70104000D01*
X116840000Y-63754000D02*
X116840000Y-76454000D01*
X116840000Y-76454000D02*
X111760000Y-76454000D01*
X111760000Y-76454000D02*
X111760000Y-66294000D01*
X116840000Y-63754000D02*
X114300000Y-63754000D01*
X111760000Y-63754000D02*
X111760000Y-66294000D01*
X114300000Y-63754000D02*
X114300000Y-66294000D01*
X114300000Y-66294000D02*
X111760000Y-66294000D01*
X111760000Y-63754000D02*
X114300000Y-63754000D01*
X153864000Y-74676000D02*
X145034000Y-74676000D01*
X153864000Y-77216000D02*
X153864000Y-74676000D01*
X145034000Y-77216000D02*
X153864000Y-77216000D01*
X145034000Y-77216000D02*
X145034000Y-74676000D01*
X145034000Y-79756000D02*
X145034000Y-77216000D01*
X145034000Y-79756000D02*
X153864000Y-77216000D01*
X153864000Y-79756000D02*
X145034000Y-77216000D01*
X145034000Y-79756000D02*
X153864000Y-79756000D01*
X153864000Y-79756000D02*
X153864000Y-77216000D01*
X153864000Y-77216000D02*
X145034000Y-77216000D01*
X153864000Y-69596000D02*
X145034000Y-69596000D01*
X153864000Y-72136000D02*
X153864000Y-69596000D01*
X145034000Y-72136000D02*
X153864000Y-72136000D01*
X145034000Y-72136000D02*
X145034000Y-69596000D01*
X145034000Y-74676000D02*
X145034000Y-72136000D01*
X145034000Y-74676000D02*
X153864000Y-72136000D01*
X153864000Y-74676000D02*
X145034000Y-72136000D01*
X145034000Y-74676000D02*
X153864000Y-74676000D01*
X153864000Y-74676000D02*
X153864000Y-72136000D01*
X153864000Y-72136000D02*
X145034000Y-72136000D01*
X117761954Y-87376000D02*
G75*
G03X117761954Y-87376000I-921954J0D01*
G74*
G01*
X116740000Y-87076000D02*
X116940000Y-87076000D01*
X116940000Y-87076000D02*
X116940000Y-87276000D01*
X116940000Y-87276000D02*
X117140000Y-87276000D01*
X117140000Y-87276000D02*
X117140000Y-87476000D01*
X117140000Y-87476000D02*
X116940000Y-87476000D01*
X116940000Y-87476000D02*
X116940000Y-87676000D01*
X116940000Y-87676000D02*
X116740000Y-87676000D01*
X116740000Y-87676000D02*
X116740000Y-87476000D01*
X116740000Y-87476000D02*
X116540000Y-87476000D01*
X116540000Y-87476000D02*
X116540000Y-87276000D01*
X116540000Y-87276000D02*
X116740000Y-87276000D01*
X116740000Y-87276000D02*
X116740000Y-87076000D01*
X116840000Y-88476000D02*
X117890000Y-88476000D01*
X117890000Y-88476000D02*
X117890000Y-86276000D01*
X117890000Y-86276000D02*
X115790000Y-86276000D01*
X115790000Y-86276000D02*
X115790000Y-88476000D01*
X115790000Y-88476000D02*
X116840000Y-88476000D01*
X118040000Y-87376000D02*
G75*
G03X118040000Y-87376000I-1200000J0D01*
G74*
G01*
X134017954Y-87376000D02*
G75*
G03X134017954Y-87376000I-921954J0D01*
G74*
G01*
X132996000Y-87076000D02*
X133196000Y-87076000D01*
X133196000Y-87076000D02*
X133196000Y-87276000D01*
X133196000Y-87276000D02*
X133396000Y-87276000D01*
X133396000Y-87276000D02*
X133396000Y-87476000D01*
X133396000Y-87476000D02*
X133196000Y-87476000D01*
X133196000Y-87476000D02*
X133196000Y-87676000D01*
X133196000Y-87676000D02*
X132996000Y-87676000D01*
X132996000Y-87676000D02*
X132996000Y-87476000D01*
X132996000Y-87476000D02*
X132796000Y-87476000D01*
X132796000Y-87476000D02*
X132796000Y-87276000D01*
X132796000Y-87276000D02*
X132996000Y-87276000D01*
X132996000Y-87276000D02*
X132996000Y-87076000D01*
X133096000Y-88476000D02*
X134146000Y-88476000D01*
X134146000Y-88476000D02*
X134146000Y-86276000D01*
X134146000Y-86276000D02*
X132046000Y-86276000D01*
X132046000Y-86276000D02*
X132046000Y-88476000D01*
X132046000Y-88476000D02*
X133096000Y-88476000D01*
X134296000Y-87376000D02*
G75*
G03X134296000Y-87376000I-1200000J0D01*
G74*
G01*
D17*
X126238000Y-78740000D02*
X126238000Y-80010000D01*
X126238000Y-80010000D02*
X123698000Y-80010000D01*
X123698000Y-80010000D02*
X123698000Y-78740000D01*
X127508000Y-78740000D02*
X127508000Y-88900000D01*
X127508000Y-88900000D02*
X122428000Y-88900000D01*
X122428000Y-88900000D02*
X122428000Y-78740000D01*
X122428000Y-78740000D02*
X127508000Y-78740000D01*
D14*
X107286000Y-65000000D02*
G75*
G03X107286000Y-65000000I-2286000J0D01*
G74*
G01*
D13*
X127508000Y-63754000D02*
X127508000Y-71374000D01*
X127508000Y-71374000D02*
X122428000Y-71374000D01*
X122428000Y-71374000D02*
X122428000Y-61214000D01*
X122428000Y-61214000D02*
X124968000Y-61214000D01*
X127508000Y-61214000D02*
X127508000Y-63754000D01*
X124968000Y-61214000D02*
X124968000Y-63754000D01*
X124968000Y-63754000D02*
X127508000Y-63754000D01*
X127508000Y-61214000D02*
X124968000Y-61214000D01*
X124968000Y-71882000D02*
X124968000Y-74422000D01*
X127508000Y-71882000D02*
X127508000Y-74422000D01*
X127508000Y-74422000D02*
X124968000Y-74422000D01*
X124968000Y-74422000D02*
X122428000Y-74422000D01*
X122428000Y-74422000D02*
X122428000Y-71882000D01*
X122428000Y-71882000D02*
X127508000Y-71882000D01*
D18*
X127508000Y-78359000D02*
X127508000Y-76073000D01*
X127508000Y-76073000D02*
X125857000Y-76073000D01*
X124079000Y-78359000D02*
X122428000Y-78359000D01*
X122428000Y-78359000D02*
X122428000Y-76073000D01*
X122428000Y-76073000D02*
X124079000Y-76073000D01*
X125857000Y-78359000D02*
X127508000Y-78359000D01*
D13*
X103775000Y-80967000D02*
X105775000Y-80967000D01*
X105775000Y-83117000D02*
X103775000Y-83117000D01*
X105648000Y-86419000D02*
X103648000Y-86419000D01*
X103648000Y-84269000D02*
X105648000Y-84269000D01*
X110760000Y-81475000D02*
X112760000Y-81475000D01*
X112760000Y-83625000D02*
X110760000Y-83625000D01*
X146288000Y-82355000D02*
X144288000Y-82355000D01*
X144288000Y-80205000D02*
X146288000Y-80205000D01*
X146288000Y-85911000D02*
X144288000Y-85911000D01*
X144288000Y-83761000D02*
X146288000Y-83761000D01*
X139176000Y-82355000D02*
X137176000Y-82355000D01*
X137176000Y-80205000D02*
X139176000Y-80205000D01*
D14*
X140225780Y-87906860D02*
X140586460Y-89377520D01*
X140586460Y-89377520D02*
X140865860Y-88315800D01*
X140865860Y-88315800D02*
X141175740Y-89387680D01*
X141175740Y-89387680D02*
X141516100Y-87937340D01*
X138805920Y-88597740D02*
X139595860Y-88587580D01*
X139595860Y-88587580D02*
X139606020Y-88597740D01*
X139606020Y-88597740D02*
X139606020Y-88587580D01*
X139646660Y-87876380D02*
X139646660Y-89418160D01*
X138757660Y-87866220D02*
X138757660Y-89435940D01*
X138757660Y-89435940D02*
X138767820Y-89425780D01*
X138206480Y-87967820D02*
X137855960Y-87886540D01*
X137855960Y-87886540D02*
X137535920Y-87876380D01*
X137535920Y-87876380D02*
X137297160Y-88077040D01*
X137297160Y-88077040D02*
X137266680Y-88346280D01*
X137266680Y-88346280D02*
X137507980Y-88587580D01*
X137507980Y-88587580D02*
X137896600Y-88717120D01*
X137896600Y-88717120D02*
X138076940Y-88877140D01*
X138076940Y-88877140D02*
X138117580Y-89176860D01*
X138117580Y-89176860D02*
X137886440Y-89397840D01*
X137886440Y-89397840D02*
X137566400Y-89425780D01*
X137566400Y-89425780D02*
X137215880Y-89316560D01*
X136177020Y-87866220D02*
X135928100Y-87886540D01*
X135928100Y-87886540D02*
X135686800Y-88127840D01*
X135686800Y-88127840D02*
X135597900Y-88618060D01*
X135597900Y-88618060D02*
X135625840Y-88966040D01*
X135625840Y-88966040D02*
X135826500Y-89286080D01*
X135826500Y-89286080D02*
X136077960Y-89408000D01*
X136077960Y-89408000D02*
X136387840Y-89336880D01*
X136387840Y-89336880D02*
X136606280Y-89156540D01*
X136606280Y-89156540D02*
X136677400Y-88696800D01*
X136677400Y-88696800D02*
X136626600Y-88287860D01*
X136626600Y-88287860D02*
X136517380Y-88005920D01*
X136517380Y-88005920D02*
X136156700Y-87876380D01*
X136776460Y-86146640D02*
X136517380Y-86707980D01*
X136517380Y-86707980D02*
X137055860Y-87226140D01*
X137055860Y-87226140D02*
X137576560Y-86956900D01*
X137576560Y-86956900D02*
X137855960Y-87116920D01*
X139296140Y-87096600D02*
X139626340Y-86906100D01*
X139626340Y-86906100D02*
X140065760Y-87236300D01*
X140065760Y-87236300D02*
X140538200Y-86746080D01*
X140538200Y-86746080D02*
X140256260Y-86266020D01*
X140256260Y-86266020D02*
X140446760Y-85796120D01*
X140446760Y-85796120D02*
X141056360Y-85608160D01*
X141056360Y-85608160D02*
X141056360Y-84927440D01*
X141056360Y-84927440D02*
X140497560Y-84787740D01*
X140497560Y-84787740D02*
X140296900Y-84216240D01*
X140296900Y-84216240D02*
X140566140Y-83746340D01*
X140566140Y-83746340D02*
X140096240Y-83235800D01*
X140096240Y-83235800D02*
X139578080Y-83497420D01*
X139578080Y-83497420D02*
X139108180Y-83296760D01*
X139108180Y-83296760D02*
X138938000Y-82755740D01*
X138938000Y-82755740D02*
X138247120Y-82737960D01*
X138247120Y-82737960D02*
X138036300Y-83286600D01*
X138036300Y-83286600D02*
X137617200Y-83456780D01*
X137617200Y-83456780D02*
X137066020Y-83187540D01*
X137066020Y-83187540D02*
X136547860Y-83715860D01*
X136547860Y-83715860D02*
X136796780Y-84256880D01*
X136796780Y-84256880D02*
X136626600Y-84736940D01*
X136626600Y-84736940D02*
X136077960Y-84836000D01*
X136077960Y-84836000D02*
X136067800Y-85537040D01*
X136067800Y-85537040D02*
X136626600Y-85737700D01*
X136626600Y-85737700D02*
X136766300Y-86136480D01*
X138907520Y-86116160D02*
X139207240Y-85966300D01*
X139207240Y-85966300D02*
X139407900Y-85768180D01*
X139407900Y-85768180D02*
X139557760Y-85366860D01*
X139557760Y-85366860D02*
X139557760Y-84968080D01*
X139557760Y-84968080D02*
X139407900Y-84617560D01*
X139407900Y-84617560D02*
X138955780Y-84267040D01*
X138955780Y-84267040D02*
X138506200Y-84216240D01*
X138506200Y-84216240D02*
X138107420Y-84317840D01*
X138107420Y-84317840D02*
X137706100Y-84665820D01*
X137706100Y-84665820D02*
X137556240Y-85117940D01*
X137556240Y-85117940D02*
X137607040Y-85615780D01*
X137607040Y-85615780D02*
X137855960Y-85918040D01*
X137855960Y-85918040D02*
X138206480Y-86116160D01*
X138206480Y-86116160D02*
X137855960Y-87116920D01*
X138907520Y-86116160D02*
X139306300Y-87116920D01*
D19*
X134698619Y-63566524D02*
X134698619Y-62296524D01*
X135182428Y-62296524D01*
X135303381Y-62357000D01*
X135363857Y-62417476D01*
X135424333Y-62538429D01*
X135424333Y-62719857D01*
X135363857Y-62840810D01*
X135303381Y-62901286D01*
X135182428Y-62961762D01*
X134698619Y-62961762D01*
X135847667Y-62296524D02*
X136694333Y-62296524D01*
X136150048Y-63566524D01*
D20*
X118708714Y-83366428D02*
X117946714Y-83366428D01*
X117946714Y-83185000D01*
X117983000Y-83076143D01*
X118055571Y-83003571D01*
X118128143Y-82967286D01*
X118273286Y-82931000D01*
X118382143Y-82931000D01*
X118527286Y-82967286D01*
X118599857Y-83003571D01*
X118672429Y-83076143D01*
X118708714Y-83185000D01*
X118708714Y-83366428D01*
X118708714Y-82205286D02*
X118708714Y-82640714D01*
X118708714Y-82423000D02*
X117946714Y-82423000D01*
X118055571Y-82495571D01*
X118128143Y-82568143D01*
X118164429Y-82640714D01*
X134964714Y-83366428D02*
X134202714Y-83366428D01*
X134202714Y-83185000D01*
X134239000Y-83076143D01*
X134311571Y-83003571D01*
X134384143Y-82967286D01*
X134529286Y-82931000D01*
X134638143Y-82931000D01*
X134783286Y-82967286D01*
X134855857Y-83003571D01*
X134928429Y-83076143D01*
X134964714Y-83185000D01*
X134964714Y-83366428D01*
X134275286Y-82640714D02*
X134239000Y-82604428D01*
X134202714Y-82531857D01*
X134202714Y-82350428D01*
X134239000Y-82277857D01*
X134275286Y-82241571D01*
X134347857Y-82205286D01*
X134420429Y-82205286D01*
X134529286Y-82241571D01*
X134964714Y-82677000D01*
X134964714Y-82205286D01*
D19*
X109032524Y-78153381D02*
X107762524Y-78153381D01*
X107762524Y-77669572D01*
X107823000Y-77548619D01*
X107883476Y-77488143D01*
X108004429Y-77427667D01*
X108185857Y-77427667D01*
X108306810Y-77488143D01*
X108367286Y-77548619D01*
X108427762Y-77669572D01*
X108427762Y-78153381D01*
X109032524Y-76218143D02*
X109032524Y-76943857D01*
X109032524Y-76581000D02*
X107762524Y-76581000D01*
X107943952Y-76701952D01*
X108064905Y-76822905D01*
X108125381Y-76943857D01*
X109032524Y-73073381D02*
X107762524Y-73073381D01*
X107762524Y-72589572D01*
X107823000Y-72468619D01*
X107883476Y-72408143D01*
X108004429Y-72347667D01*
X108185857Y-72347667D01*
X108306810Y-72408143D01*
X108367286Y-72468619D01*
X108427762Y-72589572D01*
X108427762Y-73073381D01*
X107883476Y-71863857D02*
X107823000Y-71803381D01*
X107762524Y-71682429D01*
X107762524Y-71380048D01*
X107823000Y-71259095D01*
X107883476Y-71198619D01*
X108004429Y-71138143D01*
X108125381Y-71138143D01*
X108306810Y-71198619D01*
X109032524Y-71924333D01*
X109032524Y-71138143D01*
X113362619Y-63439524D02*
X113362619Y-62169524D01*
X113846428Y-62169524D01*
X113967381Y-62230000D01*
X114027857Y-62290476D01*
X114088333Y-62411429D01*
X114088333Y-62592857D01*
X114027857Y-62713810D01*
X113967381Y-62774286D01*
X113846428Y-62834762D01*
X113362619Y-62834762D01*
X114511667Y-62169524D02*
X115297857Y-62169524D01*
X114874524Y-62653333D01*
X115055952Y-62653333D01*
X115176905Y-62713810D01*
X115237381Y-62774286D01*
X115297857Y-62895238D01*
X115297857Y-63197619D01*
X115237381Y-63318571D01*
X115176905Y-63379048D01*
X115055952Y-63439524D01*
X114693095Y-63439524D01*
X114572143Y-63379048D01*
X114511667Y-63318571D01*
X142052524Y-78153381D02*
X140782524Y-78153381D01*
X140782524Y-77669572D01*
X140843000Y-77548619D01*
X140903476Y-77488143D01*
X141024429Y-77427667D01*
X141205857Y-77427667D01*
X141326810Y-77488143D01*
X141387286Y-77548619D01*
X141447762Y-77669572D01*
X141447762Y-78153381D01*
X140782524Y-76339095D02*
X140782524Y-76581000D01*
X140843000Y-76701952D01*
X140903476Y-76762429D01*
X141084905Y-76883381D01*
X141326810Y-76943857D01*
X141810619Y-76943857D01*
X141931571Y-76883381D01*
X141992048Y-76822905D01*
X142052524Y-76701952D01*
X142052524Y-76460048D01*
X141992048Y-76339095D01*
X141931571Y-76278619D01*
X141810619Y-76218143D01*
X141508238Y-76218143D01*
X141387286Y-76278619D01*
X141326810Y-76339095D01*
X141266333Y-76460048D01*
X141266333Y-76701952D01*
X141326810Y-76822905D01*
X141387286Y-76883381D01*
X141508238Y-76943857D01*
X142052524Y-73073381D02*
X140782524Y-73073381D01*
X140782524Y-72589572D01*
X140843000Y-72468619D01*
X140903476Y-72408143D01*
X141024429Y-72347667D01*
X141205857Y-72347667D01*
X141326810Y-72408143D01*
X141387286Y-72468619D01*
X141447762Y-72589572D01*
X141447762Y-73073381D01*
X141326810Y-71621952D02*
X141266333Y-71742905D01*
X141205857Y-71803381D01*
X141084905Y-71863857D01*
X141024429Y-71863857D01*
X140903476Y-71803381D01*
X140843000Y-71742905D01*
X140782524Y-71621952D01*
X140782524Y-71380048D01*
X140843000Y-71259095D01*
X140903476Y-71198619D01*
X141024429Y-71138143D01*
X141084905Y-71138143D01*
X141205857Y-71198619D01*
X141266333Y-71259095D01*
X141326810Y-71380048D01*
X141326810Y-71621952D01*
X141387286Y-71742905D01*
X141447762Y-71803381D01*
X141568714Y-71863857D01*
X141810619Y-71863857D01*
X141931571Y-71803381D01*
X141992048Y-71742905D01*
X142052524Y-71621952D01*
X142052524Y-71380048D01*
X141992048Y-71259095D01*
X141931571Y-71198619D01*
X141810619Y-71138143D01*
X141568714Y-71138143D01*
X141447762Y-71198619D01*
X141387286Y-71259095D01*
X141326810Y-71380048D01*
D21*
X116542382Y-89802190D02*
X116375715Y-89564095D01*
X116256668Y-89802190D02*
X116256668Y-89302190D01*
X116447144Y-89302190D01*
X116494763Y-89326000D01*
X116518572Y-89349810D01*
X116542382Y-89397429D01*
X116542382Y-89468857D01*
X116518572Y-89516476D01*
X116494763Y-89540286D01*
X116447144Y-89564095D01*
X116256668Y-89564095D01*
X116685239Y-89302190D02*
X116851906Y-89802190D01*
X117018572Y-89302190D01*
X117447143Y-89802190D02*
X117161429Y-89802190D01*
X117304286Y-89802190D02*
X117304286Y-89302190D01*
X117256667Y-89373619D01*
X117209048Y-89421238D01*
X117161429Y-89445048D01*
X132798382Y-89802190D02*
X132631715Y-89564095D01*
X132512668Y-89802190D02*
X132512668Y-89302190D01*
X132703144Y-89302190D01*
X132750763Y-89326000D01*
X132774572Y-89349810D01*
X132798382Y-89397429D01*
X132798382Y-89468857D01*
X132774572Y-89516476D01*
X132750763Y-89540286D01*
X132703144Y-89564095D01*
X132512668Y-89564095D01*
X132941239Y-89302190D02*
X133107906Y-89802190D01*
X133274572Y-89302190D01*
X133417429Y-89349810D02*
X133441239Y-89326000D01*
X133488858Y-89302190D01*
X133607905Y-89302190D01*
X133655524Y-89326000D01*
X133679334Y-89349810D01*
X133703143Y-89397429D01*
X133703143Y-89445048D01*
X133679334Y-89516476D01*
X133393620Y-89802190D01*
X133703143Y-89802190D01*
D19*
X125113143Y-87188524D02*
X125113143Y-88216619D01*
X125167571Y-88337571D01*
X125222000Y-88398048D01*
X125330857Y-88458524D01*
X125548571Y-88458524D01*
X125657429Y-88398048D01*
X125711857Y-88337571D01*
X125766286Y-88216619D01*
X125766286Y-87188524D01*
X126256143Y-87309476D02*
X126310572Y-87249000D01*
X126419429Y-87188524D01*
X126691572Y-87188524D01*
X126800429Y-87249000D01*
X126854858Y-87309476D01*
X126909286Y-87430429D01*
X126909286Y-87551381D01*
X126854858Y-87732810D01*
X126201715Y-88458524D01*
X126909286Y-88458524D01*
X125542524Y-85537524D02*
X125542524Y-86021333D01*
X124272524Y-86021333D01*
X125542524Y-85198857D02*
X124272524Y-85198857D01*
X125179667Y-84860191D01*
X124272524Y-84521524D01*
X125542524Y-84521524D01*
X124272524Y-84134476D02*
X124272524Y-83505524D01*
X124756333Y-83844190D01*
X124756333Y-83699048D01*
X124816810Y-83602286D01*
X124877286Y-83553905D01*
X124998238Y-83505524D01*
X125300619Y-83505524D01*
X125421571Y-83553905D01*
X125482048Y-83602286D01*
X125542524Y-83699048D01*
X125542524Y-83989333D01*
X125482048Y-84086095D01*
X125421571Y-84134476D01*
X125542524Y-83021714D02*
X125542524Y-82828190D01*
X125482048Y-82731429D01*
X125421571Y-82683048D01*
X125240143Y-82586286D01*
X124998238Y-82537905D01*
X124514429Y-82537905D01*
X124393476Y-82586286D01*
X124333000Y-82634667D01*
X124272524Y-82731429D01*
X124272524Y-82924952D01*
X124333000Y-83021714D01*
X124393476Y-83070095D01*
X124514429Y-83118476D01*
X124816810Y-83118476D01*
X124937762Y-83070095D01*
X124998238Y-83021714D01*
X125058714Y-82924952D01*
X125058714Y-82731429D01*
X124998238Y-82634667D01*
X124937762Y-82586286D01*
X124816810Y-82537905D01*
X124272524Y-82199238D02*
X124272524Y-81570286D01*
X124756333Y-81908952D01*
X124756333Y-81763810D01*
X124816810Y-81667048D01*
X124877286Y-81618667D01*
X124998238Y-81570286D01*
X125300619Y-81570286D01*
X125421571Y-81618667D01*
X125482048Y-81667048D01*
X125542524Y-81763810D01*
X125542524Y-82054095D01*
X125482048Y-82150857D01*
X125421571Y-82199238D01*
D18*
X124841000Y-77488143D02*
X124804714Y-77524429D01*
X124695857Y-77560714D01*
X124623286Y-77560714D01*
X124514429Y-77524429D01*
X124441857Y-77451857D01*
X124405572Y-77379286D01*
X124369286Y-77234143D01*
X124369286Y-77125286D01*
X124405572Y-76980143D01*
X124441857Y-76907571D01*
X124514429Y-76835000D01*
X124623286Y-76798714D01*
X124695857Y-76798714D01*
X124804714Y-76835000D01*
X124841000Y-76871286D01*
X125566714Y-77560714D02*
X125131286Y-77560714D01*
X125349000Y-77560714D02*
X125349000Y-76798714D01*
X125276429Y-76907571D01*
X125203857Y-76980143D01*
X125131286Y-77016429D01*
D13*
X104608334Y-82494381D02*
X104275000Y-82018190D01*
X104036905Y-82494381D02*
X104036905Y-81494381D01*
X104417858Y-81494381D01*
X104513096Y-81542000D01*
X104560715Y-81589619D01*
X104608334Y-81684857D01*
X104608334Y-81827714D01*
X104560715Y-81922952D01*
X104513096Y-81970571D01*
X104417858Y-82018190D01*
X104036905Y-82018190D01*
X105560715Y-82494381D02*
X104989286Y-82494381D01*
X105275000Y-82494381D02*
X105275000Y-81494381D01*
X105179762Y-81637238D01*
X105084524Y-81732476D01*
X104989286Y-81780095D01*
X104108334Y-84018381D02*
X103536905Y-84018381D01*
X103822619Y-84018381D02*
X103822619Y-83018381D01*
X103727381Y-83161238D01*
X103632143Y-83256476D01*
X103536905Y-83304095D01*
X104727381Y-83018381D02*
X104822620Y-83018381D01*
X104917858Y-83066000D01*
X104965477Y-83113619D01*
X105013096Y-83208857D01*
X105060715Y-83399333D01*
X105060715Y-83637429D01*
X105013096Y-83827905D01*
X104965477Y-83923143D01*
X104917858Y-83970762D01*
X104822620Y-84018381D01*
X104727381Y-84018381D01*
X104632143Y-83970762D01*
X104584524Y-83923143D01*
X104536905Y-83827905D01*
X104489286Y-83637429D01*
X104489286Y-83399333D01*
X104536905Y-83208857D01*
X104584524Y-83113619D01*
X104632143Y-83066000D01*
X104727381Y-83018381D01*
X105679762Y-83018381D02*
X105775001Y-83018381D01*
X105870239Y-83066000D01*
X105917858Y-83113619D01*
X105965477Y-83208857D01*
X106013096Y-83399333D01*
X106013096Y-83637429D01*
X105965477Y-83827905D01*
X105917858Y-83923143D01*
X105870239Y-83970762D01*
X105775001Y-84018381D01*
X105679762Y-84018381D01*
X105584524Y-83970762D01*
X105536905Y-83923143D01*
X105489286Y-83827905D01*
X105441667Y-83637429D01*
X105441667Y-83399333D01*
X105489286Y-83208857D01*
X105536905Y-83113619D01*
X105584524Y-83066000D01*
X105679762Y-83018381D01*
X104481334Y-85796381D02*
X104148000Y-85320190D01*
X103909905Y-85796381D02*
X103909905Y-84796381D01*
X104290858Y-84796381D01*
X104386096Y-84844000D01*
X104433715Y-84891619D01*
X104481334Y-84986857D01*
X104481334Y-85129714D01*
X104433715Y-85224952D01*
X104386096Y-85272571D01*
X104290858Y-85320190D01*
X103909905Y-85320190D01*
X104862286Y-84891619D02*
X104909905Y-84844000D01*
X105005143Y-84796381D01*
X105243239Y-84796381D01*
X105338477Y-84844000D01*
X105386096Y-84891619D01*
X105433715Y-84986857D01*
X105433715Y-85082095D01*
X105386096Y-85224952D01*
X104814667Y-85796381D01*
X105433715Y-85796381D01*
X103981334Y-87320381D02*
X103409905Y-87320381D01*
X103695619Y-87320381D02*
X103695619Y-86320381D01*
X103600381Y-86463238D01*
X103505143Y-86558476D01*
X103409905Y-86606095D01*
X104600381Y-86320381D02*
X104695620Y-86320381D01*
X104790858Y-86368000D01*
X104838477Y-86415619D01*
X104886096Y-86510857D01*
X104933715Y-86701333D01*
X104933715Y-86939429D01*
X104886096Y-87129905D01*
X104838477Y-87225143D01*
X104790858Y-87272762D01*
X104695620Y-87320381D01*
X104600381Y-87320381D01*
X104505143Y-87272762D01*
X104457524Y-87225143D01*
X104409905Y-87129905D01*
X104362286Y-86939429D01*
X104362286Y-86701333D01*
X104409905Y-86510857D01*
X104457524Y-86415619D01*
X104505143Y-86368000D01*
X104600381Y-86320381D01*
X105552762Y-86320381D02*
X105648001Y-86320381D01*
X105743239Y-86368000D01*
X105790858Y-86415619D01*
X105838477Y-86510857D01*
X105886096Y-86701333D01*
X105886096Y-86939429D01*
X105838477Y-87129905D01*
X105790858Y-87225143D01*
X105743239Y-87272762D01*
X105648001Y-87320381D01*
X105552762Y-87320381D01*
X105457524Y-87272762D01*
X105409905Y-87225143D01*
X105362286Y-87129905D01*
X105314667Y-86939429D01*
X105314667Y-86701333D01*
X105362286Y-86510857D01*
X105409905Y-86415619D01*
X105457524Y-86368000D01*
X105552762Y-86320381D01*
X111593334Y-83002381D02*
X111260000Y-82526190D01*
X111021905Y-83002381D02*
X111021905Y-82002381D01*
X111402858Y-82002381D01*
X111498096Y-82050000D01*
X111545715Y-82097619D01*
X111593334Y-82192857D01*
X111593334Y-82335714D01*
X111545715Y-82430952D01*
X111498096Y-82478571D01*
X111402858Y-82526190D01*
X111021905Y-82526190D01*
X111926667Y-82002381D02*
X112545715Y-82002381D01*
X112212381Y-82383333D01*
X112355239Y-82383333D01*
X112450477Y-82430952D01*
X112498096Y-82478571D01*
X112545715Y-82573810D01*
X112545715Y-82811905D01*
X112498096Y-82907143D01*
X112450477Y-82954762D01*
X112355239Y-83002381D01*
X112069524Y-83002381D01*
X111974286Y-82954762D01*
X111926667Y-82907143D01*
X110474286Y-83526381D02*
X111093334Y-83526381D01*
X110760000Y-83907333D01*
X110902858Y-83907333D01*
X110998096Y-83954952D01*
X111045715Y-84002571D01*
X111093334Y-84097810D01*
X111093334Y-84335905D01*
X111045715Y-84431143D01*
X110998096Y-84478762D01*
X110902858Y-84526381D01*
X110617143Y-84526381D01*
X110521905Y-84478762D01*
X110474286Y-84431143D01*
X111426667Y-83526381D02*
X112045715Y-83526381D01*
X111712381Y-83907333D01*
X111855239Y-83907333D01*
X111950477Y-83954952D01*
X111998096Y-84002571D01*
X112045715Y-84097810D01*
X112045715Y-84335905D01*
X111998096Y-84431143D01*
X111950477Y-84478762D01*
X111855239Y-84526381D01*
X111569524Y-84526381D01*
X111474286Y-84478762D01*
X111426667Y-84431143D01*
X112664762Y-83526381D02*
X112760001Y-83526381D01*
X112855239Y-83574000D01*
X112902858Y-83621619D01*
X112950477Y-83716857D01*
X112998096Y-83907333D01*
X112998096Y-84145429D01*
X112950477Y-84335905D01*
X112902858Y-84431143D01*
X112855239Y-84478762D01*
X112760001Y-84526381D01*
X112664762Y-84526381D01*
X112569524Y-84478762D01*
X112521905Y-84431143D01*
X112474286Y-84335905D01*
X112426667Y-84145429D01*
X112426667Y-83907333D01*
X112474286Y-83716857D01*
X112521905Y-83621619D01*
X112569524Y-83574000D01*
X112664762Y-83526381D01*
X145121334Y-81732381D02*
X144788000Y-81256190D01*
X144549905Y-81732381D02*
X144549905Y-80732381D01*
X144930858Y-80732381D01*
X145026096Y-80780000D01*
X145073715Y-80827619D01*
X145121334Y-80922857D01*
X145121334Y-81065714D01*
X145073715Y-81160952D01*
X145026096Y-81208571D01*
X144930858Y-81256190D01*
X144549905Y-81256190D01*
X145978477Y-81065714D02*
X145978477Y-81732381D01*
X145740381Y-80684762D02*
X145502286Y-81399048D01*
X146121334Y-81399048D01*
X144621334Y-83256381D02*
X144049905Y-83256381D01*
X144335619Y-83256381D02*
X144335619Y-82256381D01*
X144240381Y-82399238D01*
X144145143Y-82494476D01*
X144049905Y-82542095D01*
X145240381Y-82256381D02*
X145335620Y-82256381D01*
X145430858Y-82304000D01*
X145478477Y-82351619D01*
X145526096Y-82446857D01*
X145573715Y-82637333D01*
X145573715Y-82875429D01*
X145526096Y-83065905D01*
X145478477Y-83161143D01*
X145430858Y-83208762D01*
X145335620Y-83256381D01*
X145240381Y-83256381D01*
X145145143Y-83208762D01*
X145097524Y-83161143D01*
X145049905Y-83065905D01*
X145002286Y-82875429D01*
X145002286Y-82637333D01*
X145049905Y-82446857D01*
X145097524Y-82351619D01*
X145145143Y-82304000D01*
X145240381Y-82256381D01*
X146192762Y-82256381D02*
X146288001Y-82256381D01*
X146383239Y-82304000D01*
X146430858Y-82351619D01*
X146478477Y-82446857D01*
X146526096Y-82637333D01*
X146526096Y-82875429D01*
X146478477Y-83065905D01*
X146430858Y-83161143D01*
X146383239Y-83208762D01*
X146288001Y-83256381D01*
X146192762Y-83256381D01*
X146097524Y-83208762D01*
X146049905Y-83161143D01*
X146002286Y-83065905D01*
X145954667Y-82875429D01*
X145954667Y-82637333D01*
X146002286Y-82446857D01*
X146049905Y-82351619D01*
X146097524Y-82304000D01*
X146192762Y-82256381D01*
X145121334Y-85288381D02*
X144788000Y-84812190D01*
X144549905Y-85288381D02*
X144549905Y-84288381D01*
X144930858Y-84288381D01*
X145026096Y-84336000D01*
X145073715Y-84383619D01*
X145121334Y-84478857D01*
X145121334Y-84621714D01*
X145073715Y-84716952D01*
X145026096Y-84764571D01*
X144930858Y-84812190D01*
X144549905Y-84812190D01*
X146026096Y-84288381D02*
X145549905Y-84288381D01*
X145502286Y-84764571D01*
X145549905Y-84716952D01*
X145645143Y-84669333D01*
X145883239Y-84669333D01*
X145978477Y-84716952D01*
X146026096Y-84764571D01*
X146073715Y-84859810D01*
X146073715Y-85097905D01*
X146026096Y-85193143D01*
X145978477Y-85240762D01*
X145883239Y-85288381D01*
X145645143Y-85288381D01*
X145549905Y-85240762D01*
X145502286Y-85193143D01*
X144621334Y-86812381D02*
X144049905Y-86812381D01*
X144335619Y-86812381D02*
X144335619Y-85812381D01*
X144240381Y-85955238D01*
X144145143Y-86050476D01*
X144049905Y-86098095D01*
X145240381Y-85812381D02*
X145335620Y-85812381D01*
X145430858Y-85860000D01*
X145478477Y-85907619D01*
X145526096Y-86002857D01*
X145573715Y-86193333D01*
X145573715Y-86431429D01*
X145526096Y-86621905D01*
X145478477Y-86717143D01*
X145430858Y-86764762D01*
X145335620Y-86812381D01*
X145240381Y-86812381D01*
X145145143Y-86764762D01*
X145097524Y-86717143D01*
X145049905Y-86621905D01*
X145002286Y-86431429D01*
X145002286Y-86193333D01*
X145049905Y-86002857D01*
X145097524Y-85907619D01*
X145145143Y-85860000D01*
X145240381Y-85812381D01*
X146192762Y-85812381D02*
X146288001Y-85812381D01*
X146383239Y-85860000D01*
X146430858Y-85907619D01*
X146478477Y-86002857D01*
X146526096Y-86193333D01*
X146526096Y-86431429D01*
X146478477Y-86621905D01*
X146430858Y-86717143D01*
X146383239Y-86764762D01*
X146288001Y-86812381D01*
X146192762Y-86812381D01*
X146097524Y-86764762D01*
X146049905Y-86717143D01*
X146002286Y-86621905D01*
X145954667Y-86431429D01*
X145954667Y-86193333D01*
X146002286Y-86002857D01*
X146049905Y-85907619D01*
X146097524Y-85860000D01*
X146192762Y-85812381D01*
X138009334Y-81732381D02*
X137676000Y-81256190D01*
X137437905Y-81732381D02*
X137437905Y-80732381D01*
X137818858Y-80732381D01*
X137914096Y-80780000D01*
X137961715Y-80827619D01*
X138009334Y-80922857D01*
X138009334Y-81065714D01*
X137961715Y-81160952D01*
X137914096Y-81208571D01*
X137818858Y-81256190D01*
X137437905Y-81256190D01*
X138866477Y-80732381D02*
X138676000Y-80732381D01*
X138580762Y-80780000D01*
X138533143Y-80827619D01*
X138437905Y-80970476D01*
X138390286Y-81160952D01*
X138390286Y-81541905D01*
X138437905Y-81637143D01*
X138485524Y-81684762D01*
X138580762Y-81732381D01*
X138771239Y-81732381D01*
X138866477Y-81684762D01*
X138914096Y-81637143D01*
X138961715Y-81541905D01*
X138961715Y-81303810D01*
X138914096Y-81208571D01*
X138866477Y-81160952D01*
X138771239Y-81113333D01*
X138580762Y-81113333D01*
X138485524Y-81160952D01*
X138437905Y-81208571D01*
X138390286Y-81303810D01*
X137144286Y-79208381D02*
X137763334Y-79208381D01*
X137430000Y-79589333D01*
X137572858Y-79589333D01*
X137668096Y-79636952D01*
X137715715Y-79684571D01*
X137763334Y-79779810D01*
X137763334Y-80017905D01*
X137715715Y-80113143D01*
X137668096Y-80160762D01*
X137572858Y-80208381D01*
X137287143Y-80208381D01*
X137191905Y-80160762D01*
X137144286Y-80113143D01*
X138096667Y-79208381D02*
X138715715Y-79208381D01*
X138382381Y-79589333D01*
X138525239Y-79589333D01*
X138620477Y-79636952D01*
X138668096Y-79684571D01*
X138715715Y-79779810D01*
X138715715Y-80017905D01*
X138668096Y-80113143D01*
X138620477Y-80160762D01*
X138525239Y-80208381D01*
X138239524Y-80208381D01*
X138144286Y-80160762D01*
X138096667Y-80113143D01*
X139334762Y-79208381D02*
X139430001Y-79208381D01*
X139525239Y-79256000D01*
X139572858Y-79303619D01*
X139620477Y-79398857D01*
X139668096Y-79589333D01*
X139668096Y-79827429D01*
X139620477Y-80017905D01*
X139572858Y-80113143D01*
X139525239Y-80160762D01*
X139430001Y-80208381D01*
X139334762Y-80208381D01*
X139239524Y-80160762D01*
X139191905Y-80113143D01*
X139144286Y-80017905D01*
X139096667Y-79827429D01*
X139096667Y-79589333D01*
X139144286Y-79398857D01*
X139191905Y-79303619D01*
X139239524Y-79256000D01*
X139334762Y-79208381D01*
M02*
