M48
INCH,TZ
T1C0.025
T2C0.032
T3C0.040
T4C0.205
%
G90
G05
T1
X44500Y-31000
X46800Y-34400
X50609Y-30138
X51150Y-25450
X51500Y-34500
X55800Y-32600
T2
X47700Y-31500
X47700Y-32500
X47700Y-33500
X47700Y-34500
X50700Y-31500
X50700Y-32500
X50700Y-33500
X50700Y-34500
T3
X41800Y-27900
X41800Y-28900
X41800Y-29900
X41800Y-30900
X44500Y-25600
X44500Y-26600
X44500Y-27600
X44500Y-28600
X44500Y-29600
X45500Y-25600
X45500Y-26600
X45500Y-27600
X45500Y-28600
X45500Y-29600
X48700Y-24600
X48700Y-25600
X48700Y-26600
X48700Y-27600
X48700Y-28800
X49700Y-24600
X49700Y-25600
X49700Y-26600
X49700Y-27600
X49700Y-28800
X52900Y-25600
X52900Y-26600
X52900Y-27600
X52900Y-28600
X52900Y-29600
X53900Y-25600
X53900Y-26600
X53900Y-27600
X53900Y-28600
X53900Y-29600
X56600Y-27900
X56600Y-28900
X56600Y-29900
X56600Y-30900
T4
X41339Y-25591
X57087Y-25591
T0
M30
