%FSLAX46Y46*%
G04 Gerber Fmt 4.6, Leading zero omitted, Abs format (unit mm)*
G04 Created by KiCad (PCBNEW (2014-09-25 BZR 5147)-product) date vr 26 sep 2014 03:31:45 CEST*
%MOMM*%
G01*
G04 APERTURE LIST*
%ADD10C,0.100000*%
%ADD11R,1.727200X1.727200*%
%ADD12O,1.727200X1.727200*%
%ADD13C,7.000000*%
%ADD14R,2.032000X2.032000*%
%ADD15O,2.032000X2.032000*%
%ADD16R,1.397000X1.397000*%
%ADD17C,1.397000*%
G04 APERTURE END LIST*
D10*
D11*
X134366000Y-65024000D03*
D12*
X136906000Y-65024000D03*
X134366000Y-67564000D03*
X136906000Y-67564000D03*
X134366000Y-70104000D03*
X136906000Y-70104000D03*
X134366000Y-72644000D03*
X136906000Y-72644000D03*
X134366000Y-75184000D03*
X136906000Y-75184000D03*
D13*
X145000000Y-65000000D03*
D14*
X106172000Y-75946000D03*
D15*
X106172000Y-78486000D03*
D14*
X106172000Y-70866000D03*
D15*
X106172000Y-73406000D03*
D11*
X113030000Y-65024000D03*
D12*
X115570000Y-65024000D03*
X113030000Y-67564000D03*
X115570000Y-67564000D03*
X113030000Y-70104000D03*
X115570000Y-70104000D03*
X113030000Y-72644000D03*
X115570000Y-72644000D03*
X113030000Y-75184000D03*
X115570000Y-75184000D03*
D14*
X143764000Y-78486000D03*
D15*
X143764000Y-75946000D03*
D14*
X143764000Y-73406000D03*
D15*
X143764000Y-70866000D03*
D16*
X121158000Y-80010000D03*
D17*
X121158000Y-82550000D03*
X121158000Y-85090000D03*
X121158000Y-87630000D03*
X128778000Y-87630000D03*
X128778000Y-85090000D03*
X128778000Y-82550000D03*
X128778000Y-80010000D03*
D13*
X105000000Y-65000000D03*
D11*
X126238000Y-62484000D03*
D12*
X123698000Y-62484000D03*
X126238000Y-65024000D03*
X123698000Y-65024000D03*
X126238000Y-67564000D03*
X123698000Y-67564000D03*
X126238000Y-70104000D03*
X123698000Y-70104000D03*
D14*
X126238000Y-73152000D03*
D15*
X123698000Y-73152000D03*
M02*
