%FSLAX46Y46*%
G04 Gerber Fmt 4.6, Leading zero omitted, Abs format (unit mm)*
G04 Created by KiCad (PCBNEW (2014-09-11 BZR 5128)-product) date do 25 sep 2014 05:14:31 CEST*
%MOMM*%
G01*
G04 APERTURE LIST*
%ADD10C,0.100000*%
%ADD11R,2.235200X2.235200*%
%ADD12R,1.397000X1.397000*%
%ADD13C,1.397000*%
%ADD14R,1.727200X1.727200*%
%ADD15O,1.727200X1.727200*%
%ADD16C,2.499360*%
%ADD17R,2.032000X2.032000*%
%ADD18O,2.032000X2.032000*%
%ADD19C,0.889000*%
%ADD20C,0.254000*%
%ADD21C,0.500000*%
G04 APERTURE END LIST*
D10*
D11*
X154305000Y-106680000D03*
D12*
X146685000Y-111125000D03*
D13*
X146685000Y-113665000D03*
X146685000Y-116205000D03*
X146685000Y-118745000D03*
X154305000Y-118745000D03*
X154305000Y-116205000D03*
X154305000Y-113665000D03*
X154305000Y-111125000D03*
D11*
X146685000Y-106680000D03*
D14*
X158750000Y-93345000D03*
D15*
X161290000Y-93345000D03*
X158750000Y-95885000D03*
X161290000Y-95885000D03*
X158750000Y-98425000D03*
X161290000Y-98425000D03*
X158750000Y-100965000D03*
X161290000Y-100965000D03*
X158750000Y-103505000D03*
X161290000Y-103505000D03*
D16*
X140335000Y-118110000D03*
X137835640Y-113070640D03*
X142834360Y-113070640D03*
X160020000Y-118110000D03*
X157520640Y-113070640D03*
X162519360Y-113070640D03*
D14*
X151130000Y-93345000D03*
D15*
X148590000Y-93345000D03*
X151130000Y-95885000D03*
X148590000Y-95885000D03*
X151130000Y-98425000D03*
X148590000Y-98425000D03*
X151130000Y-100965000D03*
X148590000Y-100965000D03*
D14*
X140970000Y-93345000D03*
D15*
X138430000Y-93345000D03*
X140970000Y-95885000D03*
X138430000Y-95885000D03*
X140970000Y-98425000D03*
X138430000Y-98425000D03*
X140970000Y-100965000D03*
X138430000Y-100965000D03*
X140970000Y-103505000D03*
X138430000Y-103505000D03*
D17*
X129540000Y-100330000D03*
D18*
X127000000Y-100330000D03*
D17*
X135255000Y-100330000D03*
D18*
X132715000Y-100330000D03*
D17*
X172720000Y-100330000D03*
D18*
X170180000Y-100330000D03*
D17*
X167005000Y-100330000D03*
D18*
X164465000Y-100330000D03*
D19*
X164084000Y-107442000D03*
X136398000Y-107442000D03*
X150495000Y-105410000D03*
D20*
X164084000Y-107442000D02*
X164084000Y-106299000D01*
X164084000Y-106299000D02*
X161290000Y-103505000D01*
X136398000Y-107442000D02*
X136398000Y-105537000D01*
X136398000Y-105537000D02*
X138430000Y-103505000D01*
X167005000Y-101600000D02*
X167005000Y-100330000D01*
X166395399Y-102209601D02*
X167005000Y-101600000D01*
X160045399Y-102209601D02*
X166395399Y-102209601D01*
X158750000Y-103505000D02*
X160045399Y-102209601D01*
D21*
X140970000Y-103505000D02*
X148590000Y-103505000D01*
X150495000Y-105410000D02*
X148590000Y-103505000D01*
X152400000Y-103505000D02*
X158750000Y-103505000D01*
X150495000Y-105410000D02*
X152400000Y-103505000D01*
D20*
X157632400Y-93345000D02*
X158750000Y-93345000D01*
X156387799Y-94589601D02*
X157632400Y-93345000D01*
X142087600Y-93345000D02*
X143332201Y-94589601D01*
X140970000Y-93345000D02*
X142087600Y-93345000D01*
X151130000Y-94545310D02*
X151174291Y-94589601D01*
X151130000Y-93345000D02*
X151130000Y-94545310D01*
X151174291Y-94589601D02*
X156387799Y-94589601D01*
X143332201Y-94589601D02*
X151174291Y-94589601D01*
X157886401Y-96748599D02*
X158750000Y-95885000D01*
X157480000Y-97155000D02*
X157886401Y-96748599D01*
X140970000Y-95885000D02*
X142240000Y-97155000D01*
X151108854Y-97127460D02*
X151108854Y-97155000D01*
X151130000Y-97106314D02*
X151108854Y-97127460D01*
X151130000Y-95885000D02*
X151130000Y-97106314D01*
X151108854Y-97155000D02*
X157480000Y-97155000D01*
X142240000Y-97155000D02*
X151108854Y-97155000D01*
X157480000Y-99695000D02*
X157886401Y-99288599D01*
X157886401Y-99288599D02*
X158750000Y-98425000D01*
X140970000Y-98425000D02*
X142240000Y-99695000D01*
X151130000Y-98425000D02*
X151130000Y-99673854D01*
X151108854Y-99695000D02*
X157480000Y-99695000D01*
X151130000Y-99673854D02*
X151108854Y-99695000D01*
X142240000Y-99695000D02*
X151108854Y-99695000D01*
X157886401Y-101828599D02*
X158750000Y-100965000D01*
X157480000Y-102235000D02*
X157886401Y-101828599D01*
X140970000Y-100965000D02*
X142240000Y-102235000D01*
X151178686Y-102235000D02*
X151207009Y-102235000D01*
X151130000Y-100965000D02*
X151130000Y-102186314D01*
X151130000Y-102186314D02*
X151178686Y-102235000D01*
X151207009Y-102235000D02*
X157480000Y-102235000D01*
X142240000Y-102235000D02*
X151207009Y-102235000D01*
G36*
X174569400Y-120069400D02*
X174117000Y-120069400D01*
X174117000Y-101421785D01*
X174117000Y-101270214D01*
X174117000Y-99238214D01*
X174058996Y-99098180D01*
X173951819Y-98991004D01*
X173811785Y-98933000D01*
X173660214Y-98933000D01*
X171628214Y-98933000D01*
X171488180Y-98991004D01*
X171381004Y-99098181D01*
X171339343Y-99198758D01*
X171148379Y-98992812D01*
X170562946Y-98724017D01*
X170307000Y-98842633D01*
X170307000Y-100203000D01*
X170327000Y-100203000D01*
X170327000Y-100457000D01*
X170307000Y-100457000D01*
X170307000Y-101817367D01*
X170562946Y-101935983D01*
X171148379Y-101667188D01*
X171339343Y-101461241D01*
X171381004Y-101561820D01*
X171488181Y-101668996D01*
X171628215Y-101727000D01*
X171779786Y-101727000D01*
X173811786Y-101727000D01*
X173951820Y-101668996D01*
X174058996Y-101561819D01*
X174117000Y-101421785D01*
X174117000Y-120069400D01*
X172632129Y-120069400D01*
X172632129Y-114929323D01*
X172194351Y-113869820D01*
X171384443Y-113058498D01*
X170325706Y-112618872D01*
X170053000Y-112618633D01*
X170053000Y-101817367D01*
X170053000Y-100457000D01*
X170053000Y-100203000D01*
X170053000Y-98842633D01*
X169797054Y-98724017D01*
X169211621Y-98992812D01*
X168773615Y-99465182D01*
X168574025Y-99947056D01*
X168693164Y-100203000D01*
X170053000Y-100203000D01*
X170053000Y-100457000D01*
X168693164Y-100457000D01*
X168574025Y-100712944D01*
X168773615Y-101194818D01*
X169211621Y-101667188D01*
X169797054Y-101935983D01*
X170053000Y-101817367D01*
X170053000Y-112618633D01*
X169179323Y-112617871D01*
X168402000Y-112939054D01*
X168402000Y-101421785D01*
X168402000Y-101270214D01*
X168402000Y-99238214D01*
X168343996Y-99098180D01*
X168236819Y-98991004D01*
X168096785Y-98933000D01*
X167945214Y-98933000D01*
X165913214Y-98933000D01*
X165773180Y-98991004D01*
X165666004Y-99098181D01*
X165608000Y-99238215D01*
X165608000Y-99389786D01*
X165608000Y-99533442D01*
X165480197Y-99342172D01*
X165026978Y-99039340D01*
X164492369Y-98933000D01*
X164437631Y-98933000D01*
X163903022Y-99039340D01*
X163449803Y-99342172D01*
X163146971Y-99795391D01*
X163040631Y-100330000D01*
X163146971Y-100864609D01*
X163449803Y-101317828D01*
X163903022Y-101620660D01*
X164309941Y-101701601D01*
X162282216Y-101701601D01*
X162439860Y-101465671D01*
X162534600Y-100989383D01*
X162534600Y-100940617D01*
X162534600Y-98449383D01*
X162534600Y-98400617D01*
X162534600Y-95909383D01*
X162534600Y-95860617D01*
X162534600Y-93369383D01*
X162534600Y-93320617D01*
X162439860Y-92844329D01*
X162170065Y-92440552D01*
X161766288Y-92170757D01*
X161290000Y-92076017D01*
X160813712Y-92170757D01*
X160409935Y-92440552D01*
X160140140Y-92844329D01*
X160045400Y-93320617D01*
X160045400Y-93369383D01*
X160140140Y-93845671D01*
X160409935Y-94249448D01*
X160813712Y-94519243D01*
X161290000Y-94613983D01*
X161766288Y-94519243D01*
X162170065Y-94249448D01*
X162439860Y-93845671D01*
X162534600Y-93369383D01*
X162534600Y-95860617D01*
X162439860Y-95384329D01*
X162170065Y-94980552D01*
X161766288Y-94710757D01*
X161290000Y-94616017D01*
X160813712Y-94710757D01*
X160409935Y-94980552D01*
X160140140Y-95384329D01*
X160045400Y-95860617D01*
X160045400Y-95909383D01*
X160140140Y-96385671D01*
X160409935Y-96789448D01*
X160813712Y-97059243D01*
X161290000Y-97153983D01*
X161766288Y-97059243D01*
X162170065Y-96789448D01*
X162439860Y-96385671D01*
X162534600Y-95909383D01*
X162534600Y-98400617D01*
X162439860Y-97924329D01*
X162170065Y-97520552D01*
X161766288Y-97250757D01*
X161290000Y-97156017D01*
X160813712Y-97250757D01*
X160409935Y-97520552D01*
X160140140Y-97924329D01*
X160045400Y-98400617D01*
X160045400Y-98449383D01*
X160140140Y-98925671D01*
X160409935Y-99329448D01*
X160813712Y-99599243D01*
X161290000Y-99693983D01*
X161766288Y-99599243D01*
X162170065Y-99329448D01*
X162439860Y-98925671D01*
X162534600Y-98449383D01*
X162534600Y-100940617D01*
X162439860Y-100464329D01*
X162170065Y-100060552D01*
X161766288Y-99790757D01*
X161290000Y-99696017D01*
X160813712Y-99790757D01*
X160409935Y-100060552D01*
X160140140Y-100464329D01*
X160045400Y-100940617D01*
X160045400Y-100989383D01*
X160140140Y-101465671D01*
X160297783Y-101701601D01*
X160045399Y-101701601D01*
X159994600Y-101711705D01*
X159994600Y-100989383D01*
X159994600Y-100940617D01*
X159899860Y-100464329D01*
X159630065Y-100060552D01*
X159226288Y-99790757D01*
X158750000Y-99696017D01*
X158273712Y-99790757D01*
X157869935Y-100060552D01*
X157600140Y-100464329D01*
X157505400Y-100940617D01*
X157505400Y-100989383D01*
X157588653Y-101407926D01*
X157527191Y-101469389D01*
X157269579Y-101727000D01*
X152105245Y-101727000D01*
X152279860Y-101465671D01*
X152374600Y-100989383D01*
X152374600Y-100940617D01*
X152279860Y-100464329D01*
X152105245Y-100203000D01*
X157480000Y-100203000D01*
X157674403Y-100164331D01*
X157839210Y-100054210D01*
X158245611Y-99647809D01*
X158290781Y-99602638D01*
X158750000Y-99693983D01*
X159226288Y-99599243D01*
X159630065Y-99329448D01*
X159899860Y-98925671D01*
X159994600Y-98449383D01*
X159994600Y-98400617D01*
X159899860Y-97924329D01*
X159630065Y-97520552D01*
X159226288Y-97250757D01*
X158750000Y-97156017D01*
X158273712Y-97250757D01*
X157869935Y-97520552D01*
X157600140Y-97924329D01*
X157505400Y-98400617D01*
X157505400Y-98449383D01*
X157588653Y-98867926D01*
X157527191Y-98929389D01*
X157269580Y-99187000D01*
X152105245Y-99187000D01*
X152279860Y-98925671D01*
X152374600Y-98449383D01*
X152374600Y-98400617D01*
X152279860Y-97924329D01*
X152105245Y-97663000D01*
X157480000Y-97663000D01*
X157674403Y-97624331D01*
X157839210Y-97514210D01*
X158245611Y-97107809D01*
X158290781Y-97062638D01*
X158750000Y-97153983D01*
X159226288Y-97059243D01*
X159630065Y-96789448D01*
X159899860Y-96385671D01*
X159994600Y-95909383D01*
X159994600Y-95860617D01*
X159899860Y-95384329D01*
X159630065Y-94980552D01*
X159226288Y-94710757D01*
X158750000Y-94616017D01*
X158273712Y-94710757D01*
X157869935Y-94980552D01*
X157600140Y-95384329D01*
X157505400Y-95860617D01*
X157505400Y-95909383D01*
X157588653Y-96327926D01*
X157527191Y-96389389D01*
X157269580Y-96647000D01*
X152105245Y-96647000D01*
X152279860Y-96385671D01*
X152374600Y-95909383D01*
X152374600Y-95860617D01*
X152279860Y-95384329D01*
X152088274Y-95097601D01*
X156387799Y-95097601D01*
X156582202Y-95058932D01*
X156747009Y-94948811D01*
X157505400Y-94190420D01*
X157505400Y-94284386D01*
X157563404Y-94424420D01*
X157670581Y-94531596D01*
X157810615Y-94589600D01*
X157962186Y-94589600D01*
X159689386Y-94589600D01*
X159829420Y-94531596D01*
X159936596Y-94424419D01*
X159994600Y-94284385D01*
X159994600Y-94132814D01*
X159994600Y-92405614D01*
X159936596Y-92265580D01*
X159829419Y-92158404D01*
X159689385Y-92100400D01*
X159537814Y-92100400D01*
X157810614Y-92100400D01*
X157670580Y-92158404D01*
X157563404Y-92265581D01*
X157505400Y-92405615D01*
X157505400Y-92557186D01*
X157505400Y-92862261D01*
X157437997Y-92875669D01*
X157273190Y-92985789D01*
X156177378Y-94081601D01*
X152374600Y-94081601D01*
X152374600Y-92405614D01*
X152316596Y-92265580D01*
X152209419Y-92158404D01*
X152069385Y-92100400D01*
X151917814Y-92100400D01*
X150190614Y-92100400D01*
X150050580Y-92158404D01*
X149943404Y-92265581D01*
X149885400Y-92405615D01*
X149885400Y-92557186D01*
X149885400Y-94081601D01*
X149582216Y-94081601D01*
X149739860Y-93845671D01*
X149834600Y-93369383D01*
X149834600Y-93320617D01*
X149739860Y-92844329D01*
X149470065Y-92440552D01*
X149066288Y-92170757D01*
X148590000Y-92076017D01*
X148113712Y-92170757D01*
X147709935Y-92440552D01*
X147440140Y-92844329D01*
X147345400Y-93320617D01*
X147345400Y-93369383D01*
X147440140Y-93845671D01*
X147597783Y-94081601D01*
X143542621Y-94081601D01*
X142446810Y-92985790D01*
X142282003Y-92875669D01*
X142214600Y-92862261D01*
X142214600Y-92405614D01*
X142156596Y-92265580D01*
X142049419Y-92158404D01*
X141909385Y-92100400D01*
X141757814Y-92100400D01*
X140030614Y-92100400D01*
X139890580Y-92158404D01*
X139783404Y-92265581D01*
X139725400Y-92405615D01*
X139725400Y-92557186D01*
X139725400Y-94284386D01*
X139783404Y-94424420D01*
X139890581Y-94531596D01*
X140030615Y-94589600D01*
X140182186Y-94589600D01*
X141909386Y-94589600D01*
X142049420Y-94531596D01*
X142156596Y-94424419D01*
X142214600Y-94284385D01*
X142214600Y-94190420D01*
X142972991Y-94948812D01*
X143137798Y-95058932D01*
X143332201Y-95097601D01*
X147631725Y-95097601D01*
X147440140Y-95384329D01*
X147345400Y-95860617D01*
X147345400Y-95909383D01*
X147440140Y-96385671D01*
X147614754Y-96647000D01*
X142450419Y-96647000D01*
X142131346Y-96327926D01*
X142214600Y-95909383D01*
X142214600Y-95860617D01*
X142119860Y-95384329D01*
X141850065Y-94980552D01*
X141446288Y-94710757D01*
X140970000Y-94616017D01*
X140493712Y-94710757D01*
X140089935Y-94980552D01*
X139820140Y-95384329D01*
X139725400Y-95860617D01*
X139725400Y-95909383D01*
X139820140Y-96385671D01*
X140089935Y-96789448D01*
X140493712Y-97059243D01*
X140970000Y-97153983D01*
X141429218Y-97062638D01*
X141880790Y-97514210D01*
X142045596Y-97624331D01*
X142045597Y-97624331D01*
X142077849Y-97630746D01*
X142240000Y-97663000D01*
X147614754Y-97663000D01*
X147440140Y-97924329D01*
X147345400Y-98400617D01*
X147345400Y-98449383D01*
X147440140Y-98925671D01*
X147614754Y-99187000D01*
X142450419Y-99187000D01*
X142131346Y-98867926D01*
X142214600Y-98449383D01*
X142214600Y-98400617D01*
X142119860Y-97924329D01*
X141850065Y-97520552D01*
X141446288Y-97250757D01*
X140970000Y-97156017D01*
X140493712Y-97250757D01*
X140089935Y-97520552D01*
X139820140Y-97924329D01*
X139725400Y-98400617D01*
X139725400Y-98449383D01*
X139820140Y-98925671D01*
X140089935Y-99329448D01*
X140493712Y-99599243D01*
X140970000Y-99693983D01*
X141429218Y-99602638D01*
X141880790Y-100054210D01*
X142045596Y-100164331D01*
X142045597Y-100164331D01*
X142077849Y-100170746D01*
X142240000Y-100203000D01*
X147614754Y-100203000D01*
X147440140Y-100464329D01*
X147345400Y-100940617D01*
X147345400Y-100989383D01*
X147440140Y-101465671D01*
X147614754Y-101727000D01*
X142450420Y-101727000D01*
X142131346Y-101407926D01*
X142214600Y-100989383D01*
X142214600Y-100940617D01*
X142119860Y-100464329D01*
X141850065Y-100060552D01*
X141446288Y-99790757D01*
X140970000Y-99696017D01*
X140493712Y-99790757D01*
X140089935Y-100060552D01*
X139820140Y-100464329D01*
X139725400Y-100940617D01*
X139725400Y-100989383D01*
X139820140Y-101465671D01*
X140089935Y-101869448D01*
X140493712Y-102139243D01*
X140970000Y-102233983D01*
X141429218Y-102142638D01*
X141880790Y-102594210D01*
X142045596Y-102704331D01*
X142045597Y-102704331D01*
X142077849Y-102710746D01*
X142240000Y-102743000D01*
X151178686Y-102743000D01*
X151207009Y-102743000D01*
X157480000Y-102743000D01*
X157674403Y-102704331D01*
X157839210Y-102594210D01*
X158245611Y-102187809D01*
X158290781Y-102142638D01*
X158750000Y-102233983D01*
X159226288Y-102139243D01*
X159630065Y-101869448D01*
X159899860Y-101465671D01*
X159994600Y-100989383D01*
X159994600Y-101711705D01*
X159850996Y-101740270D01*
X159686189Y-101850391D01*
X159209218Y-102327361D01*
X158750000Y-102236017D01*
X158273712Y-102330757D01*
X157869935Y-102600552D01*
X157687223Y-102874000D01*
X152400000Y-102874000D01*
X152158527Y-102922032D01*
X151953816Y-103058816D01*
X150495000Y-104517632D01*
X149036184Y-103058816D01*
X148831473Y-102922032D01*
X148590000Y-102874000D01*
X142032776Y-102874000D01*
X141850065Y-102600552D01*
X141446288Y-102330757D01*
X140970000Y-102236017D01*
X140493712Y-102330757D01*
X140089935Y-102600552D01*
X139820140Y-103004329D01*
X139819676Y-103006661D01*
X139636821Y-102616510D01*
X139204947Y-102222312D01*
X138943828Y-102114159D01*
X139310065Y-101869448D01*
X139579860Y-101465671D01*
X139674600Y-100989383D01*
X139674600Y-100940617D01*
X139674600Y-98449383D01*
X139674600Y-98400617D01*
X139674600Y-95909383D01*
X139674600Y-95860617D01*
X139674600Y-93369383D01*
X139674600Y-93320617D01*
X139579860Y-92844329D01*
X139310065Y-92440552D01*
X138906288Y-92170757D01*
X138430000Y-92076017D01*
X137953712Y-92170757D01*
X137549935Y-92440552D01*
X137280140Y-92844329D01*
X137185400Y-93320617D01*
X137185400Y-93369383D01*
X137280140Y-93845671D01*
X137549935Y-94249448D01*
X137953712Y-94519243D01*
X138430000Y-94613983D01*
X138906288Y-94519243D01*
X139310065Y-94249448D01*
X139579860Y-93845671D01*
X139674600Y-93369383D01*
X139674600Y-95860617D01*
X139579860Y-95384329D01*
X139310065Y-94980552D01*
X138906288Y-94710757D01*
X138430000Y-94616017D01*
X137953712Y-94710757D01*
X137549935Y-94980552D01*
X137280140Y-95384329D01*
X137185400Y-95860617D01*
X137185400Y-95909383D01*
X137280140Y-96385671D01*
X137549935Y-96789448D01*
X137953712Y-97059243D01*
X138430000Y-97153983D01*
X138906288Y-97059243D01*
X139310065Y-96789448D01*
X139579860Y-96385671D01*
X139674600Y-95909383D01*
X139674600Y-98400617D01*
X139579860Y-97924329D01*
X139310065Y-97520552D01*
X138906288Y-97250757D01*
X138430000Y-97156017D01*
X137953712Y-97250757D01*
X137549935Y-97520552D01*
X137280140Y-97924329D01*
X137185400Y-98400617D01*
X137185400Y-98449383D01*
X137280140Y-98925671D01*
X137549935Y-99329448D01*
X137953712Y-99599243D01*
X138430000Y-99693983D01*
X138906288Y-99599243D01*
X139310065Y-99329448D01*
X139579860Y-98925671D01*
X139674600Y-98449383D01*
X139674600Y-100940617D01*
X139579860Y-100464329D01*
X139310065Y-100060552D01*
X138906288Y-99790757D01*
X138430000Y-99696017D01*
X137953712Y-99790757D01*
X137549935Y-100060552D01*
X137280140Y-100464329D01*
X137185400Y-100940617D01*
X137185400Y-100989383D01*
X137280140Y-101465671D01*
X137549935Y-101869448D01*
X137916171Y-102114159D01*
X137655053Y-102222312D01*
X137223179Y-102616510D01*
X136975032Y-103145973D01*
X137095531Y-103378000D01*
X138303000Y-103378000D01*
X138303000Y-103358000D01*
X138557000Y-103358000D01*
X138557000Y-103378000D01*
X138577000Y-103378000D01*
X138577000Y-103632000D01*
X138557000Y-103632000D01*
X138557000Y-104838817D01*
X138789026Y-104959958D01*
X139204947Y-104787688D01*
X139636821Y-104393490D01*
X139819676Y-104003338D01*
X139820140Y-104005671D01*
X140089935Y-104409448D01*
X140493712Y-104679243D01*
X140970000Y-104773983D01*
X141446288Y-104679243D01*
X141850065Y-104409448D01*
X142032776Y-104136000D01*
X148328632Y-104136000D01*
X149669441Y-105476809D01*
X149669357Y-105573482D01*
X149794767Y-105876998D01*
X150026781Y-106109417D01*
X150330077Y-106235357D01*
X150658482Y-106235643D01*
X150961998Y-106110233D01*
X151194417Y-105878219D01*
X151320357Y-105574923D01*
X151320442Y-105476925D01*
X152661368Y-104136000D01*
X157687223Y-104136000D01*
X157869935Y-104409448D01*
X158273712Y-104679243D01*
X158750000Y-104773983D01*
X159226288Y-104679243D01*
X159630065Y-104409448D01*
X159899860Y-104005671D01*
X159900323Y-104003338D01*
X160083179Y-104393490D01*
X160515053Y-104787688D01*
X160930974Y-104959958D01*
X161163000Y-104838817D01*
X161163000Y-103632000D01*
X161143000Y-103632000D01*
X161143000Y-103378000D01*
X161163000Y-103378000D01*
X161163000Y-103358000D01*
X161417000Y-103358000D01*
X161417000Y-103378000D01*
X162624469Y-103378000D01*
X162744968Y-103145973D01*
X162544200Y-102717601D01*
X166395399Y-102717601D01*
X166589802Y-102678932D01*
X166754609Y-102568811D01*
X167364210Y-101959210D01*
X167474331Y-101794403D01*
X167487738Y-101727000D01*
X168096786Y-101727000D01*
X168236820Y-101668996D01*
X168343996Y-101561819D01*
X168402000Y-101421785D01*
X168402000Y-112939054D01*
X168119820Y-113055649D01*
X167308498Y-113865557D01*
X166868872Y-114924294D01*
X166867871Y-116070677D01*
X167305649Y-117130180D01*
X168115557Y-117941502D01*
X169174294Y-118381128D01*
X170320677Y-118382129D01*
X171380180Y-117944351D01*
X172191502Y-117134443D01*
X172631128Y-116075706D01*
X172632129Y-114929323D01*
X172632129Y-120069400D01*
X164150323Y-120069400D01*
X164150323Y-112747701D01*
X163902589Y-112148141D01*
X163444272Y-111689023D01*
X162845145Y-111440244D01*
X162744968Y-111440156D01*
X162744968Y-103864027D01*
X162624469Y-103632000D01*
X161417000Y-103632000D01*
X161417000Y-104838817D01*
X161649026Y-104959958D01*
X162064947Y-104787688D01*
X162496821Y-104393490D01*
X162744968Y-103864027D01*
X162744968Y-111440156D01*
X162196421Y-111439677D01*
X161596861Y-111687411D01*
X161137743Y-112145728D01*
X160888964Y-112744855D01*
X160888397Y-113393579D01*
X161136131Y-113993139D01*
X161594448Y-114452257D01*
X162193575Y-114701036D01*
X162842299Y-114701603D01*
X163441859Y-114453869D01*
X163900977Y-113995552D01*
X164149756Y-113396425D01*
X164150323Y-112747701D01*
X164150323Y-120069400D01*
X161650963Y-120069400D01*
X161650963Y-117787061D01*
X161403229Y-117187501D01*
X160944912Y-116728383D01*
X160345785Y-116479604D01*
X159697061Y-116479037D01*
X159414711Y-116595702D01*
X159414711Y-113394757D01*
X159394568Y-112645256D01*
X159146499Y-112046365D01*
X158853729Y-111917157D01*
X158674123Y-112096762D01*
X158674123Y-111737551D01*
X158544915Y-111444781D01*
X157844757Y-111176569D01*
X157095256Y-111196712D01*
X156496365Y-111444781D01*
X156367157Y-111737551D01*
X157520640Y-112891035D01*
X158674123Y-111737551D01*
X158674123Y-112096762D01*
X157700245Y-113070640D01*
X158853729Y-114224123D01*
X159146499Y-114094915D01*
X159414711Y-113394757D01*
X159414711Y-116595702D01*
X159097501Y-116726771D01*
X158674123Y-117149410D01*
X158674123Y-114403729D01*
X157520640Y-113250245D01*
X157341035Y-113429850D01*
X157341035Y-113070640D01*
X156187551Y-111917157D01*
X155894781Y-112046365D01*
X155803600Y-112284389D01*
X155803600Y-107873385D01*
X155803600Y-107721814D01*
X155803600Y-105486614D01*
X155745596Y-105346580D01*
X155638419Y-105239404D01*
X155498385Y-105181400D01*
X155346814Y-105181400D01*
X153111614Y-105181400D01*
X152971580Y-105239404D01*
X152864404Y-105346581D01*
X152806400Y-105486615D01*
X152806400Y-105638186D01*
X152806400Y-107873386D01*
X152864404Y-108013420D01*
X152971581Y-108120596D01*
X153111615Y-108178600D01*
X153263186Y-108178600D01*
X155498386Y-108178600D01*
X155638420Y-108120596D01*
X155745596Y-108013419D01*
X155803600Y-107873385D01*
X155803600Y-112284389D01*
X155626569Y-112746523D01*
X155646712Y-113496024D01*
X155894781Y-114094915D01*
X156187551Y-114224123D01*
X157341035Y-113070640D01*
X157341035Y-113429850D01*
X156367157Y-114403729D01*
X156496365Y-114696499D01*
X157196523Y-114964711D01*
X157946024Y-114944568D01*
X158544915Y-114696499D01*
X158674123Y-114403729D01*
X158674123Y-117149410D01*
X158638383Y-117185088D01*
X158389604Y-117784215D01*
X158389037Y-118432939D01*
X158636771Y-119032499D01*
X159095088Y-119491617D01*
X159694215Y-119740396D01*
X160342939Y-119740963D01*
X160942499Y-119493229D01*
X161401617Y-119034912D01*
X161650396Y-118435785D01*
X161650963Y-117787061D01*
X161650963Y-120069400D01*
X155384687Y-120069400D01*
X155384687Y-118531216D01*
X155384687Y-115991216D01*
X155384687Y-113451216D01*
X155384687Y-110911216D01*
X155220689Y-110514311D01*
X154917286Y-110210378D01*
X154520668Y-110045687D01*
X154091216Y-110045313D01*
X153694311Y-110209311D01*
X153390378Y-110512714D01*
X153225687Y-110909332D01*
X153225313Y-111338784D01*
X153389311Y-111735689D01*
X153692714Y-112039622D01*
X154089332Y-112204313D01*
X154518784Y-112204687D01*
X154915689Y-112040689D01*
X155219622Y-111737286D01*
X155384313Y-111340668D01*
X155384687Y-110911216D01*
X155384687Y-113451216D01*
X155220689Y-113054311D01*
X154917286Y-112750378D01*
X154520668Y-112585687D01*
X154091216Y-112585313D01*
X153694311Y-112749311D01*
X153390378Y-113052714D01*
X153225687Y-113449332D01*
X153225313Y-113878784D01*
X153389311Y-114275689D01*
X153692714Y-114579622D01*
X154089332Y-114744313D01*
X154518784Y-114744687D01*
X154915689Y-114580689D01*
X155219622Y-114277286D01*
X155384313Y-113880668D01*
X155384687Y-113451216D01*
X155384687Y-115991216D01*
X155220689Y-115594311D01*
X154917286Y-115290378D01*
X154520668Y-115125687D01*
X154091216Y-115125313D01*
X153694311Y-115289311D01*
X153390378Y-115592714D01*
X153225687Y-115989332D01*
X153225313Y-116418784D01*
X153389311Y-116815689D01*
X153692714Y-117119622D01*
X154089332Y-117284313D01*
X154518784Y-117284687D01*
X154915689Y-117120689D01*
X155219622Y-116817286D01*
X155384313Y-116420668D01*
X155384687Y-115991216D01*
X155384687Y-118531216D01*
X155220689Y-118134311D01*
X154917286Y-117830378D01*
X154520668Y-117665687D01*
X154091216Y-117665313D01*
X153694311Y-117829311D01*
X153390378Y-118132714D01*
X153225687Y-118529332D01*
X153225313Y-118958784D01*
X153389311Y-119355689D01*
X153692714Y-119659622D01*
X154089332Y-119824313D01*
X154518784Y-119824687D01*
X154915689Y-119660689D01*
X155219622Y-119357286D01*
X155384313Y-118960668D01*
X155384687Y-118531216D01*
X155384687Y-120069400D01*
X148183600Y-120069400D01*
X148183600Y-107873385D01*
X148183600Y-107721814D01*
X148183600Y-105486614D01*
X148125596Y-105346580D01*
X148018419Y-105239404D01*
X147878385Y-105181400D01*
X147726814Y-105181400D01*
X145491614Y-105181400D01*
X145351580Y-105239404D01*
X145244404Y-105346581D01*
X145186400Y-105486615D01*
X145186400Y-105638186D01*
X145186400Y-107873386D01*
X145244404Y-108013420D01*
X145351581Y-108120596D01*
X145491615Y-108178600D01*
X145643186Y-108178600D01*
X147878386Y-108178600D01*
X148018420Y-108120596D01*
X148125596Y-108013419D01*
X148183600Y-107873385D01*
X148183600Y-120069400D01*
X148030927Y-120069400D01*
X148030927Y-118937520D01*
X148002148Y-118407801D01*
X147854800Y-118052071D01*
X147764687Y-118028490D01*
X147764687Y-115991216D01*
X147764687Y-113451216D01*
X147764500Y-113450763D01*
X147764500Y-111899285D01*
X147764500Y-111747714D01*
X147764500Y-110350714D01*
X147706496Y-110210680D01*
X147599319Y-110103504D01*
X147459285Y-110045500D01*
X147307714Y-110045500D01*
X145910714Y-110045500D01*
X145770680Y-110103504D01*
X145663504Y-110210681D01*
X145605500Y-110350715D01*
X145605500Y-110502286D01*
X145605500Y-111899286D01*
X145663504Y-112039320D01*
X145770681Y-112146496D01*
X145910715Y-112204500D01*
X146062286Y-112204500D01*
X147459286Y-112204500D01*
X147599320Y-112146496D01*
X147706496Y-112039319D01*
X147764500Y-111899285D01*
X147764500Y-113450763D01*
X147600689Y-113054311D01*
X147297286Y-112750378D01*
X146900668Y-112585687D01*
X146471216Y-112585313D01*
X146074311Y-112749311D01*
X145770378Y-113052714D01*
X145605687Y-113449332D01*
X145605313Y-113878784D01*
X145769311Y-114275689D01*
X146072714Y-114579622D01*
X146469332Y-114744313D01*
X146898784Y-114744687D01*
X147295689Y-114580689D01*
X147599622Y-114277286D01*
X147764313Y-113880668D01*
X147764687Y-113451216D01*
X147764687Y-115991216D01*
X147600689Y-115594311D01*
X147297286Y-115290378D01*
X146900668Y-115125687D01*
X146471216Y-115125313D01*
X146074311Y-115289311D01*
X145770378Y-115592714D01*
X145605687Y-115989332D01*
X145605313Y-116418784D01*
X145769311Y-116815689D01*
X146072714Y-117119622D01*
X146469332Y-117284313D01*
X146898784Y-117284687D01*
X147295689Y-117120689D01*
X147599622Y-116817286D01*
X147764313Y-116420668D01*
X147764687Y-115991216D01*
X147764687Y-118028490D01*
X147619188Y-117990417D01*
X147439583Y-118170022D01*
X147439583Y-117810812D01*
X147377929Y-117575200D01*
X146877520Y-117399073D01*
X146347801Y-117427852D01*
X145992071Y-117575200D01*
X145930417Y-117810812D01*
X146685000Y-118565395D01*
X147439583Y-117810812D01*
X147439583Y-118170022D01*
X146864605Y-118745000D01*
X147619188Y-119499583D01*
X147854800Y-119437929D01*
X148030927Y-118937520D01*
X148030927Y-120069400D01*
X146888715Y-120069400D01*
X147022199Y-120062148D01*
X147377929Y-119914800D01*
X147439583Y-119679188D01*
X146685000Y-118924605D01*
X146505395Y-119104210D01*
X146505395Y-118745000D01*
X145750812Y-117990417D01*
X145515200Y-118052071D01*
X145339073Y-118552480D01*
X145367852Y-119082199D01*
X145515200Y-119437929D01*
X145750812Y-119499583D01*
X146505395Y-118745000D01*
X146505395Y-119104210D01*
X145930417Y-119679188D01*
X145992071Y-119914800D01*
X146431317Y-120069400D01*
X144465323Y-120069400D01*
X144465323Y-112747701D01*
X144217589Y-112148141D01*
X143759272Y-111689023D01*
X143160145Y-111440244D01*
X142511421Y-111439677D01*
X141911861Y-111687411D01*
X141452743Y-112145728D01*
X141203964Y-112744855D01*
X141203397Y-113393579D01*
X141451131Y-113993139D01*
X141909448Y-114452257D01*
X142508575Y-114701036D01*
X143157299Y-114701603D01*
X143756859Y-114453869D01*
X144215977Y-113995552D01*
X144464756Y-113396425D01*
X144465323Y-112747701D01*
X144465323Y-120069400D01*
X141965963Y-120069400D01*
X141965963Y-117787061D01*
X141718229Y-117187501D01*
X141259912Y-116728383D01*
X140660785Y-116479604D01*
X140012061Y-116479037D01*
X139729711Y-116595702D01*
X139729711Y-113394757D01*
X139709568Y-112645256D01*
X139461499Y-112046365D01*
X139168729Y-111917157D01*
X138989123Y-112096762D01*
X138989123Y-111737551D01*
X138859915Y-111444781D01*
X138303000Y-111231441D01*
X138303000Y-104838817D01*
X138303000Y-103632000D01*
X137095531Y-103632000D01*
X136975032Y-103864027D01*
X137223179Y-104393490D01*
X137655053Y-104787688D01*
X138070974Y-104959958D01*
X138303000Y-104838817D01*
X138303000Y-111231441D01*
X138159757Y-111176569D01*
X137410256Y-111196712D01*
X136811365Y-111444781D01*
X136682157Y-111737551D01*
X137835640Y-112891035D01*
X138989123Y-111737551D01*
X138989123Y-112096762D01*
X138015245Y-113070640D01*
X139168729Y-114224123D01*
X139461499Y-114094915D01*
X139729711Y-113394757D01*
X139729711Y-116595702D01*
X139412501Y-116726771D01*
X138989123Y-117149410D01*
X138989123Y-114403729D01*
X137835640Y-113250245D01*
X137656035Y-113429850D01*
X137656035Y-113070640D01*
X136652000Y-112066605D01*
X136652000Y-101421785D01*
X136652000Y-101270214D01*
X136652000Y-99238214D01*
X136593996Y-99098180D01*
X136486819Y-98991004D01*
X136346785Y-98933000D01*
X136195214Y-98933000D01*
X134163214Y-98933000D01*
X134023180Y-98991004D01*
X133916004Y-99098181D01*
X133858000Y-99238215D01*
X133858000Y-99389786D01*
X133858000Y-99533442D01*
X133730197Y-99342172D01*
X133276978Y-99039340D01*
X132742369Y-98933000D01*
X132687631Y-98933000D01*
X132153022Y-99039340D01*
X131699803Y-99342172D01*
X131396971Y-99795391D01*
X131290631Y-100330000D01*
X131396971Y-100864609D01*
X131699803Y-101317828D01*
X132153022Y-101620660D01*
X132687631Y-101727000D01*
X132742369Y-101727000D01*
X133276978Y-101620660D01*
X133730197Y-101317828D01*
X133858000Y-101126557D01*
X133858000Y-101421786D01*
X133916004Y-101561820D01*
X134023181Y-101668996D01*
X134163215Y-101727000D01*
X134314786Y-101727000D01*
X136346786Y-101727000D01*
X136486820Y-101668996D01*
X136593996Y-101561819D01*
X136652000Y-101421785D01*
X136652000Y-112066605D01*
X136502551Y-111917157D01*
X136209781Y-112046365D01*
X135941569Y-112746523D01*
X135961712Y-113496024D01*
X136209781Y-114094915D01*
X136502551Y-114224123D01*
X137656035Y-113070640D01*
X137656035Y-113429850D01*
X136682157Y-114403729D01*
X136811365Y-114696499D01*
X137511523Y-114964711D01*
X138261024Y-114944568D01*
X138859915Y-114696499D01*
X138989123Y-114403729D01*
X138989123Y-117149410D01*
X138953383Y-117185088D01*
X138704604Y-117784215D01*
X138704037Y-118432939D01*
X138951771Y-119032499D01*
X139410088Y-119491617D01*
X140009215Y-119740396D01*
X140657939Y-119740963D01*
X141257499Y-119493229D01*
X141716617Y-119034912D01*
X141965396Y-118435785D01*
X141965963Y-117787061D01*
X141965963Y-120069400D01*
X132632129Y-120069400D01*
X132632129Y-114929323D01*
X132194351Y-113869820D01*
X131384443Y-113058498D01*
X130937000Y-112872703D01*
X130937000Y-101421785D01*
X130937000Y-101270214D01*
X130937000Y-99238214D01*
X130878996Y-99098180D01*
X130771819Y-98991004D01*
X130631785Y-98933000D01*
X130480214Y-98933000D01*
X128448214Y-98933000D01*
X128308180Y-98991004D01*
X128201004Y-99098181D01*
X128159343Y-99198758D01*
X127968379Y-98992812D01*
X127382946Y-98724017D01*
X127127000Y-98842633D01*
X127127000Y-100203000D01*
X127147000Y-100203000D01*
X127147000Y-100457000D01*
X127127000Y-100457000D01*
X127127000Y-101817367D01*
X127382946Y-101935983D01*
X127968379Y-101667188D01*
X128159343Y-101461241D01*
X128201004Y-101561820D01*
X128308181Y-101668996D01*
X128448215Y-101727000D01*
X128599786Y-101727000D01*
X130631786Y-101727000D01*
X130771820Y-101668996D01*
X130878996Y-101561819D01*
X130937000Y-101421785D01*
X130937000Y-112872703D01*
X130325706Y-112618872D01*
X129179323Y-112617871D01*
X128119820Y-113055649D01*
X127308498Y-113865557D01*
X126868872Y-114924294D01*
X126867871Y-116070677D01*
X127305649Y-117130180D01*
X128115557Y-117941502D01*
X129174294Y-118381128D01*
X130320677Y-118382129D01*
X131380180Y-117944351D01*
X132191502Y-117134443D01*
X132631128Y-116075706D01*
X132632129Y-114929323D01*
X132632129Y-120069400D01*
X125430600Y-120069400D01*
X125430600Y-100801247D01*
X125593615Y-101194818D01*
X126031621Y-101667188D01*
X126617054Y-101935983D01*
X126873000Y-101817367D01*
X126873000Y-100457000D01*
X126853000Y-100457000D01*
X126853000Y-100203000D01*
X126873000Y-100203000D01*
X126873000Y-98842633D01*
X126617054Y-98724017D01*
X126031621Y-98992812D01*
X125593615Y-99465182D01*
X125430600Y-99858752D01*
X125430600Y-90930600D01*
X174569400Y-90930600D01*
X174569400Y-120069400D01*
X174569400Y-120069400D01*
G37*
X174569400Y-120069400D02*
X174117000Y-120069400D01*
X174117000Y-101421785D01*
X174117000Y-101270214D01*
X174117000Y-99238214D01*
X174058996Y-99098180D01*
X173951819Y-98991004D01*
X173811785Y-98933000D01*
X173660214Y-98933000D01*
X171628214Y-98933000D01*
X171488180Y-98991004D01*
X171381004Y-99098181D01*
X171339343Y-99198758D01*
X171148379Y-98992812D01*
X170562946Y-98724017D01*
X170307000Y-98842633D01*
X170307000Y-100203000D01*
X170327000Y-100203000D01*
X170327000Y-100457000D01*
X170307000Y-100457000D01*
X170307000Y-101817367D01*
X170562946Y-101935983D01*
X171148379Y-101667188D01*
X171339343Y-101461241D01*
X171381004Y-101561820D01*
X171488181Y-101668996D01*
X171628215Y-101727000D01*
X171779786Y-101727000D01*
X173811786Y-101727000D01*
X173951820Y-101668996D01*
X174058996Y-101561819D01*
X174117000Y-101421785D01*
X174117000Y-120069400D01*
X172632129Y-120069400D01*
X172632129Y-114929323D01*
X172194351Y-113869820D01*
X171384443Y-113058498D01*
X170325706Y-112618872D01*
X170053000Y-112618633D01*
X170053000Y-101817367D01*
X170053000Y-100457000D01*
X170053000Y-100203000D01*
X170053000Y-98842633D01*
X169797054Y-98724017D01*
X169211621Y-98992812D01*
X168773615Y-99465182D01*
X168574025Y-99947056D01*
X168693164Y-100203000D01*
X170053000Y-100203000D01*
X170053000Y-100457000D01*
X168693164Y-100457000D01*
X168574025Y-100712944D01*
X168773615Y-101194818D01*
X169211621Y-101667188D01*
X169797054Y-101935983D01*
X170053000Y-101817367D01*
X170053000Y-112618633D01*
X169179323Y-112617871D01*
X168402000Y-112939054D01*
X168402000Y-101421785D01*
X168402000Y-101270214D01*
X168402000Y-99238214D01*
X168343996Y-99098180D01*
X168236819Y-98991004D01*
X168096785Y-98933000D01*
X167945214Y-98933000D01*
X165913214Y-98933000D01*
X165773180Y-98991004D01*
X165666004Y-99098181D01*
X165608000Y-99238215D01*
X165608000Y-99389786D01*
X165608000Y-99533442D01*
X165480197Y-99342172D01*
X165026978Y-99039340D01*
X164492369Y-98933000D01*
X164437631Y-98933000D01*
X163903022Y-99039340D01*
X163449803Y-99342172D01*
X163146971Y-99795391D01*
X163040631Y-100330000D01*
X163146971Y-100864609D01*
X163449803Y-101317828D01*
X163903022Y-101620660D01*
X164309941Y-101701601D01*
X162282216Y-101701601D01*
X162439860Y-101465671D01*
X162534600Y-100989383D01*
X162534600Y-100940617D01*
X162534600Y-98449383D01*
X162534600Y-98400617D01*
X162534600Y-95909383D01*
X162534600Y-95860617D01*
X162534600Y-93369383D01*
X162534600Y-93320617D01*
X162439860Y-92844329D01*
X162170065Y-92440552D01*
X161766288Y-92170757D01*
X161290000Y-92076017D01*
X160813712Y-92170757D01*
X160409935Y-92440552D01*
X160140140Y-92844329D01*
X160045400Y-93320617D01*
X160045400Y-93369383D01*
X160140140Y-93845671D01*
X160409935Y-94249448D01*
X160813712Y-94519243D01*
X161290000Y-94613983D01*
X161766288Y-94519243D01*
X162170065Y-94249448D01*
X162439860Y-93845671D01*
X162534600Y-93369383D01*
X162534600Y-95860617D01*
X162439860Y-95384329D01*
X162170065Y-94980552D01*
X161766288Y-94710757D01*
X161290000Y-94616017D01*
X160813712Y-94710757D01*
X160409935Y-94980552D01*
X160140140Y-95384329D01*
X160045400Y-95860617D01*
X160045400Y-95909383D01*
X160140140Y-96385671D01*
X160409935Y-96789448D01*
X160813712Y-97059243D01*
X161290000Y-97153983D01*
X161766288Y-97059243D01*
X162170065Y-96789448D01*
X162439860Y-96385671D01*
X162534600Y-95909383D01*
X162534600Y-98400617D01*
X162439860Y-97924329D01*
X162170065Y-97520552D01*
X161766288Y-97250757D01*
X161290000Y-97156017D01*
X160813712Y-97250757D01*
X160409935Y-97520552D01*
X160140140Y-97924329D01*
X160045400Y-98400617D01*
X160045400Y-98449383D01*
X160140140Y-98925671D01*
X160409935Y-99329448D01*
X160813712Y-99599243D01*
X161290000Y-99693983D01*
X161766288Y-99599243D01*
X162170065Y-99329448D01*
X162439860Y-98925671D01*
X162534600Y-98449383D01*
X162534600Y-100940617D01*
X162439860Y-100464329D01*
X162170065Y-100060552D01*
X161766288Y-99790757D01*
X161290000Y-99696017D01*
X160813712Y-99790757D01*
X160409935Y-100060552D01*
X160140140Y-100464329D01*
X160045400Y-100940617D01*
X160045400Y-100989383D01*
X160140140Y-101465671D01*
X160297783Y-101701601D01*
X160045399Y-101701601D01*
X159994600Y-101711705D01*
X159994600Y-100989383D01*
X159994600Y-100940617D01*
X159899860Y-100464329D01*
X159630065Y-100060552D01*
X159226288Y-99790757D01*
X158750000Y-99696017D01*
X158273712Y-99790757D01*
X157869935Y-100060552D01*
X157600140Y-100464329D01*
X157505400Y-100940617D01*
X157505400Y-100989383D01*
X157588653Y-101407926D01*
X157527191Y-101469389D01*
X157269579Y-101727000D01*
X152105245Y-101727000D01*
X152279860Y-101465671D01*
X152374600Y-100989383D01*
X152374600Y-100940617D01*
X152279860Y-100464329D01*
X152105245Y-100203000D01*
X157480000Y-100203000D01*
X157674403Y-100164331D01*
X157839210Y-100054210D01*
X158245611Y-99647809D01*
X158290781Y-99602638D01*
X158750000Y-99693983D01*
X159226288Y-99599243D01*
X159630065Y-99329448D01*
X159899860Y-98925671D01*
X159994600Y-98449383D01*
X159994600Y-98400617D01*
X159899860Y-97924329D01*
X159630065Y-97520552D01*
X159226288Y-97250757D01*
X158750000Y-97156017D01*
X158273712Y-97250757D01*
X157869935Y-97520552D01*
X157600140Y-97924329D01*
X157505400Y-98400617D01*
X157505400Y-98449383D01*
X157588653Y-98867926D01*
X157527191Y-98929389D01*
X157269580Y-99187000D01*
X152105245Y-99187000D01*
X152279860Y-98925671D01*
X152374600Y-98449383D01*
X152374600Y-98400617D01*
X152279860Y-97924329D01*
X152105245Y-97663000D01*
X157480000Y-97663000D01*
X157674403Y-97624331D01*
X157839210Y-97514210D01*
X158245611Y-97107809D01*
X158290781Y-97062638D01*
X158750000Y-97153983D01*
X159226288Y-97059243D01*
X159630065Y-96789448D01*
X159899860Y-96385671D01*
X159994600Y-95909383D01*
X159994600Y-95860617D01*
X159899860Y-95384329D01*
X159630065Y-94980552D01*
X159226288Y-94710757D01*
X158750000Y-94616017D01*
X158273712Y-94710757D01*
X157869935Y-94980552D01*
X157600140Y-95384329D01*
X157505400Y-95860617D01*
X157505400Y-95909383D01*
X157588653Y-96327926D01*
X157527191Y-96389389D01*
X157269580Y-96647000D01*
X152105245Y-96647000D01*
X152279860Y-96385671D01*
X152374600Y-95909383D01*
X152374600Y-95860617D01*
X152279860Y-95384329D01*
X152088274Y-95097601D01*
X156387799Y-95097601D01*
X156582202Y-95058932D01*
X156747009Y-94948811D01*
X157505400Y-94190420D01*
X157505400Y-94284386D01*
X157563404Y-94424420D01*
X157670581Y-94531596D01*
X157810615Y-94589600D01*
X157962186Y-94589600D01*
X159689386Y-94589600D01*
X159829420Y-94531596D01*
X159936596Y-94424419D01*
X159994600Y-94284385D01*
X159994600Y-94132814D01*
X159994600Y-92405614D01*
X159936596Y-92265580D01*
X159829419Y-92158404D01*
X159689385Y-92100400D01*
X159537814Y-92100400D01*
X157810614Y-92100400D01*
X157670580Y-92158404D01*
X157563404Y-92265581D01*
X157505400Y-92405615D01*
X157505400Y-92557186D01*
X157505400Y-92862261D01*
X157437997Y-92875669D01*
X157273190Y-92985789D01*
X156177378Y-94081601D01*
X152374600Y-94081601D01*
X152374600Y-92405614D01*
X152316596Y-92265580D01*
X152209419Y-92158404D01*
X152069385Y-92100400D01*
X151917814Y-92100400D01*
X150190614Y-92100400D01*
X150050580Y-92158404D01*
X149943404Y-92265581D01*
X149885400Y-92405615D01*
X149885400Y-92557186D01*
X149885400Y-94081601D01*
X149582216Y-94081601D01*
X149739860Y-93845671D01*
X149834600Y-93369383D01*
X149834600Y-93320617D01*
X149739860Y-92844329D01*
X149470065Y-92440552D01*
X149066288Y-92170757D01*
X148590000Y-92076017D01*
X148113712Y-92170757D01*
X147709935Y-92440552D01*
X147440140Y-92844329D01*
X147345400Y-93320617D01*
X147345400Y-93369383D01*
X147440140Y-93845671D01*
X147597783Y-94081601D01*
X143542621Y-94081601D01*
X142446810Y-92985790D01*
X142282003Y-92875669D01*
X142214600Y-92862261D01*
X142214600Y-92405614D01*
X142156596Y-92265580D01*
X142049419Y-92158404D01*
X141909385Y-92100400D01*
X141757814Y-92100400D01*
X140030614Y-92100400D01*
X139890580Y-92158404D01*
X139783404Y-92265581D01*
X139725400Y-92405615D01*
X139725400Y-92557186D01*
X139725400Y-94284386D01*
X139783404Y-94424420D01*
X139890581Y-94531596D01*
X140030615Y-94589600D01*
X140182186Y-94589600D01*
X141909386Y-94589600D01*
X142049420Y-94531596D01*
X142156596Y-94424419D01*
X142214600Y-94284385D01*
X142214600Y-94190420D01*
X142972991Y-94948812D01*
X143137798Y-95058932D01*
X143332201Y-95097601D01*
X147631725Y-95097601D01*
X147440140Y-95384329D01*
X147345400Y-95860617D01*
X147345400Y-95909383D01*
X147440140Y-96385671D01*
X147614754Y-96647000D01*
X142450419Y-96647000D01*
X142131346Y-96327926D01*
X142214600Y-95909383D01*
X142214600Y-95860617D01*
X142119860Y-95384329D01*
X141850065Y-94980552D01*
X141446288Y-94710757D01*
X140970000Y-94616017D01*
X140493712Y-94710757D01*
X140089935Y-94980552D01*
X139820140Y-95384329D01*
X139725400Y-95860617D01*
X139725400Y-95909383D01*
X139820140Y-96385671D01*
X140089935Y-96789448D01*
X140493712Y-97059243D01*
X140970000Y-97153983D01*
X141429218Y-97062638D01*
X141880790Y-97514210D01*
X142045596Y-97624331D01*
X142045597Y-97624331D01*
X142077849Y-97630746D01*
X142240000Y-97663000D01*
X147614754Y-97663000D01*
X147440140Y-97924329D01*
X147345400Y-98400617D01*
X147345400Y-98449383D01*
X147440140Y-98925671D01*
X147614754Y-99187000D01*
X142450419Y-99187000D01*
X142131346Y-98867926D01*
X142214600Y-98449383D01*
X142214600Y-98400617D01*
X142119860Y-97924329D01*
X141850065Y-97520552D01*
X141446288Y-97250757D01*
X140970000Y-97156017D01*
X140493712Y-97250757D01*
X140089935Y-97520552D01*
X139820140Y-97924329D01*
X139725400Y-98400617D01*
X139725400Y-98449383D01*
X139820140Y-98925671D01*
X140089935Y-99329448D01*
X140493712Y-99599243D01*
X140970000Y-99693983D01*
X141429218Y-99602638D01*
X141880790Y-100054210D01*
X142045596Y-100164331D01*
X142045597Y-100164331D01*
X142077849Y-100170746D01*
X142240000Y-100203000D01*
X147614754Y-100203000D01*
X147440140Y-100464329D01*
X147345400Y-100940617D01*
X147345400Y-100989383D01*
X147440140Y-101465671D01*
X147614754Y-101727000D01*
X142450420Y-101727000D01*
X142131346Y-101407926D01*
X142214600Y-100989383D01*
X142214600Y-100940617D01*
X142119860Y-100464329D01*
X141850065Y-100060552D01*
X141446288Y-99790757D01*
X140970000Y-99696017D01*
X140493712Y-99790757D01*
X140089935Y-100060552D01*
X139820140Y-100464329D01*
X139725400Y-100940617D01*
X139725400Y-100989383D01*
X139820140Y-101465671D01*
X140089935Y-101869448D01*
X140493712Y-102139243D01*
X140970000Y-102233983D01*
X141429218Y-102142638D01*
X141880790Y-102594210D01*
X142045596Y-102704331D01*
X142045597Y-102704331D01*
X142077849Y-102710746D01*
X142240000Y-102743000D01*
X151178686Y-102743000D01*
X151207009Y-102743000D01*
X157480000Y-102743000D01*
X157674403Y-102704331D01*
X157839210Y-102594210D01*
X158245611Y-102187809D01*
X158290781Y-102142638D01*
X158750000Y-102233983D01*
X159226288Y-102139243D01*
X159630065Y-101869448D01*
X159899860Y-101465671D01*
X159994600Y-100989383D01*
X159994600Y-101711705D01*
X159850996Y-101740270D01*
X159686189Y-101850391D01*
X159209218Y-102327361D01*
X158750000Y-102236017D01*
X158273712Y-102330757D01*
X157869935Y-102600552D01*
X157687223Y-102874000D01*
X152400000Y-102874000D01*
X152158527Y-102922032D01*
X151953816Y-103058816D01*
X150495000Y-104517632D01*
X149036184Y-103058816D01*
X148831473Y-102922032D01*
X148590000Y-102874000D01*
X142032776Y-102874000D01*
X141850065Y-102600552D01*
X141446288Y-102330757D01*
X140970000Y-102236017D01*
X140493712Y-102330757D01*
X140089935Y-102600552D01*
X139820140Y-103004329D01*
X139819676Y-103006661D01*
X139636821Y-102616510D01*
X139204947Y-102222312D01*
X138943828Y-102114159D01*
X139310065Y-101869448D01*
X139579860Y-101465671D01*
X139674600Y-100989383D01*
X139674600Y-100940617D01*
X139674600Y-98449383D01*
X139674600Y-98400617D01*
X139674600Y-95909383D01*
X139674600Y-95860617D01*
X139674600Y-93369383D01*
X139674600Y-93320617D01*
X139579860Y-92844329D01*
X139310065Y-92440552D01*
X138906288Y-92170757D01*
X138430000Y-92076017D01*
X137953712Y-92170757D01*
X137549935Y-92440552D01*
X137280140Y-92844329D01*
X137185400Y-93320617D01*
X137185400Y-93369383D01*
X137280140Y-93845671D01*
X137549935Y-94249448D01*
X137953712Y-94519243D01*
X138430000Y-94613983D01*
X138906288Y-94519243D01*
X139310065Y-94249448D01*
X139579860Y-93845671D01*
X139674600Y-93369383D01*
X139674600Y-95860617D01*
X139579860Y-95384329D01*
X139310065Y-94980552D01*
X138906288Y-94710757D01*
X138430000Y-94616017D01*
X137953712Y-94710757D01*
X137549935Y-94980552D01*
X137280140Y-95384329D01*
X137185400Y-95860617D01*
X137185400Y-95909383D01*
X137280140Y-96385671D01*
X137549935Y-96789448D01*
X137953712Y-97059243D01*
X138430000Y-97153983D01*
X138906288Y-97059243D01*
X139310065Y-96789448D01*
X139579860Y-96385671D01*
X139674600Y-95909383D01*
X139674600Y-98400617D01*
X139579860Y-97924329D01*
X139310065Y-97520552D01*
X138906288Y-97250757D01*
X138430000Y-97156017D01*
X137953712Y-97250757D01*
X137549935Y-97520552D01*
X137280140Y-97924329D01*
X137185400Y-98400617D01*
X137185400Y-98449383D01*
X137280140Y-98925671D01*
X137549935Y-99329448D01*
X137953712Y-99599243D01*
X138430000Y-99693983D01*
X138906288Y-99599243D01*
X139310065Y-99329448D01*
X139579860Y-98925671D01*
X139674600Y-98449383D01*
X139674600Y-100940617D01*
X139579860Y-100464329D01*
X139310065Y-100060552D01*
X138906288Y-99790757D01*
X138430000Y-99696017D01*
X137953712Y-99790757D01*
X137549935Y-100060552D01*
X137280140Y-100464329D01*
X137185400Y-100940617D01*
X137185400Y-100989383D01*
X137280140Y-101465671D01*
X137549935Y-101869448D01*
X137916171Y-102114159D01*
X137655053Y-102222312D01*
X137223179Y-102616510D01*
X136975032Y-103145973D01*
X137095531Y-103378000D01*
X138303000Y-103378000D01*
X138303000Y-103358000D01*
X138557000Y-103358000D01*
X138557000Y-103378000D01*
X138577000Y-103378000D01*
X138577000Y-103632000D01*
X138557000Y-103632000D01*
X138557000Y-104838817D01*
X138789026Y-104959958D01*
X139204947Y-104787688D01*
X139636821Y-104393490D01*
X139819676Y-104003338D01*
X139820140Y-104005671D01*
X140089935Y-104409448D01*
X140493712Y-104679243D01*
X140970000Y-104773983D01*
X141446288Y-104679243D01*
X141850065Y-104409448D01*
X142032776Y-104136000D01*
X148328632Y-104136000D01*
X149669441Y-105476809D01*
X149669357Y-105573482D01*
X149794767Y-105876998D01*
X150026781Y-106109417D01*
X150330077Y-106235357D01*
X150658482Y-106235643D01*
X150961998Y-106110233D01*
X151194417Y-105878219D01*
X151320357Y-105574923D01*
X151320442Y-105476925D01*
X152661368Y-104136000D01*
X157687223Y-104136000D01*
X157869935Y-104409448D01*
X158273712Y-104679243D01*
X158750000Y-104773983D01*
X159226288Y-104679243D01*
X159630065Y-104409448D01*
X159899860Y-104005671D01*
X159900323Y-104003338D01*
X160083179Y-104393490D01*
X160515053Y-104787688D01*
X160930974Y-104959958D01*
X161163000Y-104838817D01*
X161163000Y-103632000D01*
X161143000Y-103632000D01*
X161143000Y-103378000D01*
X161163000Y-103378000D01*
X161163000Y-103358000D01*
X161417000Y-103358000D01*
X161417000Y-103378000D01*
X162624469Y-103378000D01*
X162744968Y-103145973D01*
X162544200Y-102717601D01*
X166395399Y-102717601D01*
X166589802Y-102678932D01*
X166754609Y-102568811D01*
X167364210Y-101959210D01*
X167474331Y-101794403D01*
X167487738Y-101727000D01*
X168096786Y-101727000D01*
X168236820Y-101668996D01*
X168343996Y-101561819D01*
X168402000Y-101421785D01*
X168402000Y-112939054D01*
X168119820Y-113055649D01*
X167308498Y-113865557D01*
X166868872Y-114924294D01*
X166867871Y-116070677D01*
X167305649Y-117130180D01*
X168115557Y-117941502D01*
X169174294Y-118381128D01*
X170320677Y-118382129D01*
X171380180Y-117944351D01*
X172191502Y-117134443D01*
X172631128Y-116075706D01*
X172632129Y-114929323D01*
X172632129Y-120069400D01*
X164150323Y-120069400D01*
X164150323Y-112747701D01*
X163902589Y-112148141D01*
X163444272Y-111689023D01*
X162845145Y-111440244D01*
X162744968Y-111440156D01*
X162744968Y-103864027D01*
X162624469Y-103632000D01*
X161417000Y-103632000D01*
X161417000Y-104838817D01*
X161649026Y-104959958D01*
X162064947Y-104787688D01*
X162496821Y-104393490D01*
X162744968Y-103864027D01*
X162744968Y-111440156D01*
X162196421Y-111439677D01*
X161596861Y-111687411D01*
X161137743Y-112145728D01*
X160888964Y-112744855D01*
X160888397Y-113393579D01*
X161136131Y-113993139D01*
X161594448Y-114452257D01*
X162193575Y-114701036D01*
X162842299Y-114701603D01*
X163441859Y-114453869D01*
X163900977Y-113995552D01*
X164149756Y-113396425D01*
X164150323Y-112747701D01*
X164150323Y-120069400D01*
X161650963Y-120069400D01*
X161650963Y-117787061D01*
X161403229Y-117187501D01*
X160944912Y-116728383D01*
X160345785Y-116479604D01*
X159697061Y-116479037D01*
X159414711Y-116595702D01*
X159414711Y-113394757D01*
X159394568Y-112645256D01*
X159146499Y-112046365D01*
X158853729Y-111917157D01*
X158674123Y-112096762D01*
X158674123Y-111737551D01*
X158544915Y-111444781D01*
X157844757Y-111176569D01*
X157095256Y-111196712D01*
X156496365Y-111444781D01*
X156367157Y-111737551D01*
X157520640Y-112891035D01*
X158674123Y-111737551D01*
X158674123Y-112096762D01*
X157700245Y-113070640D01*
X158853729Y-114224123D01*
X159146499Y-114094915D01*
X159414711Y-113394757D01*
X159414711Y-116595702D01*
X159097501Y-116726771D01*
X158674123Y-117149410D01*
X158674123Y-114403729D01*
X157520640Y-113250245D01*
X157341035Y-113429850D01*
X157341035Y-113070640D01*
X156187551Y-111917157D01*
X155894781Y-112046365D01*
X155803600Y-112284389D01*
X155803600Y-107873385D01*
X155803600Y-107721814D01*
X155803600Y-105486614D01*
X155745596Y-105346580D01*
X155638419Y-105239404D01*
X155498385Y-105181400D01*
X155346814Y-105181400D01*
X153111614Y-105181400D01*
X152971580Y-105239404D01*
X152864404Y-105346581D01*
X152806400Y-105486615D01*
X152806400Y-105638186D01*
X152806400Y-107873386D01*
X152864404Y-108013420D01*
X152971581Y-108120596D01*
X153111615Y-108178600D01*
X153263186Y-108178600D01*
X155498386Y-108178600D01*
X155638420Y-108120596D01*
X155745596Y-108013419D01*
X155803600Y-107873385D01*
X155803600Y-112284389D01*
X155626569Y-112746523D01*
X155646712Y-113496024D01*
X155894781Y-114094915D01*
X156187551Y-114224123D01*
X157341035Y-113070640D01*
X157341035Y-113429850D01*
X156367157Y-114403729D01*
X156496365Y-114696499D01*
X157196523Y-114964711D01*
X157946024Y-114944568D01*
X158544915Y-114696499D01*
X158674123Y-114403729D01*
X158674123Y-117149410D01*
X158638383Y-117185088D01*
X158389604Y-117784215D01*
X158389037Y-118432939D01*
X158636771Y-119032499D01*
X159095088Y-119491617D01*
X159694215Y-119740396D01*
X160342939Y-119740963D01*
X160942499Y-119493229D01*
X161401617Y-119034912D01*
X161650396Y-118435785D01*
X161650963Y-117787061D01*
X161650963Y-120069400D01*
X155384687Y-120069400D01*
X155384687Y-118531216D01*
X155384687Y-115991216D01*
X155384687Y-113451216D01*
X155384687Y-110911216D01*
X155220689Y-110514311D01*
X154917286Y-110210378D01*
X154520668Y-110045687D01*
X154091216Y-110045313D01*
X153694311Y-110209311D01*
X153390378Y-110512714D01*
X153225687Y-110909332D01*
X153225313Y-111338784D01*
X153389311Y-111735689D01*
X153692714Y-112039622D01*
X154089332Y-112204313D01*
X154518784Y-112204687D01*
X154915689Y-112040689D01*
X155219622Y-111737286D01*
X155384313Y-111340668D01*
X155384687Y-110911216D01*
X155384687Y-113451216D01*
X155220689Y-113054311D01*
X154917286Y-112750378D01*
X154520668Y-112585687D01*
X154091216Y-112585313D01*
X153694311Y-112749311D01*
X153390378Y-113052714D01*
X153225687Y-113449332D01*
X153225313Y-113878784D01*
X153389311Y-114275689D01*
X153692714Y-114579622D01*
X154089332Y-114744313D01*
X154518784Y-114744687D01*
X154915689Y-114580689D01*
X155219622Y-114277286D01*
X155384313Y-113880668D01*
X155384687Y-113451216D01*
X155384687Y-115991216D01*
X155220689Y-115594311D01*
X154917286Y-115290378D01*
X154520668Y-115125687D01*
X154091216Y-115125313D01*
X153694311Y-115289311D01*
X153390378Y-115592714D01*
X153225687Y-115989332D01*
X153225313Y-116418784D01*
X153389311Y-116815689D01*
X153692714Y-117119622D01*
X154089332Y-117284313D01*
X154518784Y-117284687D01*
X154915689Y-117120689D01*
X155219622Y-116817286D01*
X155384313Y-116420668D01*
X155384687Y-115991216D01*
X155384687Y-118531216D01*
X155220689Y-118134311D01*
X154917286Y-117830378D01*
X154520668Y-117665687D01*
X154091216Y-117665313D01*
X153694311Y-117829311D01*
X153390378Y-118132714D01*
X153225687Y-118529332D01*
X153225313Y-118958784D01*
X153389311Y-119355689D01*
X153692714Y-119659622D01*
X154089332Y-119824313D01*
X154518784Y-119824687D01*
X154915689Y-119660689D01*
X155219622Y-119357286D01*
X155384313Y-118960668D01*
X155384687Y-118531216D01*
X155384687Y-120069400D01*
X148183600Y-120069400D01*
X148183600Y-107873385D01*
X148183600Y-107721814D01*
X148183600Y-105486614D01*
X148125596Y-105346580D01*
X148018419Y-105239404D01*
X147878385Y-105181400D01*
X147726814Y-105181400D01*
X145491614Y-105181400D01*
X145351580Y-105239404D01*
X145244404Y-105346581D01*
X145186400Y-105486615D01*
X145186400Y-105638186D01*
X145186400Y-107873386D01*
X145244404Y-108013420D01*
X145351581Y-108120596D01*
X145491615Y-108178600D01*
X145643186Y-108178600D01*
X147878386Y-108178600D01*
X148018420Y-108120596D01*
X148125596Y-108013419D01*
X148183600Y-107873385D01*
X148183600Y-120069400D01*
X148030927Y-120069400D01*
X148030927Y-118937520D01*
X148002148Y-118407801D01*
X147854800Y-118052071D01*
X147764687Y-118028490D01*
X147764687Y-115991216D01*
X147764687Y-113451216D01*
X147764500Y-113450763D01*
X147764500Y-111899285D01*
X147764500Y-111747714D01*
X147764500Y-110350714D01*
X147706496Y-110210680D01*
X147599319Y-110103504D01*
X147459285Y-110045500D01*
X147307714Y-110045500D01*
X145910714Y-110045500D01*
X145770680Y-110103504D01*
X145663504Y-110210681D01*
X145605500Y-110350715D01*
X145605500Y-110502286D01*
X145605500Y-111899286D01*
X145663504Y-112039320D01*
X145770681Y-112146496D01*
X145910715Y-112204500D01*
X146062286Y-112204500D01*
X147459286Y-112204500D01*
X147599320Y-112146496D01*
X147706496Y-112039319D01*
X147764500Y-111899285D01*
X147764500Y-113450763D01*
X147600689Y-113054311D01*
X147297286Y-112750378D01*
X146900668Y-112585687D01*
X146471216Y-112585313D01*
X146074311Y-112749311D01*
X145770378Y-113052714D01*
X145605687Y-113449332D01*
X145605313Y-113878784D01*
X145769311Y-114275689D01*
X146072714Y-114579622D01*
X146469332Y-114744313D01*
X146898784Y-114744687D01*
X147295689Y-114580689D01*
X147599622Y-114277286D01*
X147764313Y-113880668D01*
X147764687Y-113451216D01*
X147764687Y-115991216D01*
X147600689Y-115594311D01*
X147297286Y-115290378D01*
X146900668Y-115125687D01*
X146471216Y-115125313D01*
X146074311Y-115289311D01*
X145770378Y-115592714D01*
X145605687Y-115989332D01*
X145605313Y-116418784D01*
X145769311Y-116815689D01*
X146072714Y-117119622D01*
X146469332Y-117284313D01*
X146898784Y-117284687D01*
X147295689Y-117120689D01*
X147599622Y-116817286D01*
X147764313Y-116420668D01*
X147764687Y-115991216D01*
X147764687Y-118028490D01*
X147619188Y-117990417D01*
X147439583Y-118170022D01*
X147439583Y-117810812D01*
X147377929Y-117575200D01*
X146877520Y-117399073D01*
X146347801Y-117427852D01*
X145992071Y-117575200D01*
X145930417Y-117810812D01*
X146685000Y-118565395D01*
X147439583Y-117810812D01*
X147439583Y-118170022D01*
X146864605Y-118745000D01*
X147619188Y-119499583D01*
X147854800Y-119437929D01*
X148030927Y-118937520D01*
X148030927Y-120069400D01*
X146888715Y-120069400D01*
X147022199Y-120062148D01*
X147377929Y-119914800D01*
X147439583Y-119679188D01*
X146685000Y-118924605D01*
X146505395Y-119104210D01*
X146505395Y-118745000D01*
X145750812Y-117990417D01*
X145515200Y-118052071D01*
X145339073Y-118552480D01*
X145367852Y-119082199D01*
X145515200Y-119437929D01*
X145750812Y-119499583D01*
X146505395Y-118745000D01*
X146505395Y-119104210D01*
X145930417Y-119679188D01*
X145992071Y-119914800D01*
X146431317Y-120069400D01*
X144465323Y-120069400D01*
X144465323Y-112747701D01*
X144217589Y-112148141D01*
X143759272Y-111689023D01*
X143160145Y-111440244D01*
X142511421Y-111439677D01*
X141911861Y-111687411D01*
X141452743Y-112145728D01*
X141203964Y-112744855D01*
X141203397Y-113393579D01*
X141451131Y-113993139D01*
X141909448Y-114452257D01*
X142508575Y-114701036D01*
X143157299Y-114701603D01*
X143756859Y-114453869D01*
X144215977Y-113995552D01*
X144464756Y-113396425D01*
X144465323Y-112747701D01*
X144465323Y-120069400D01*
X141965963Y-120069400D01*
X141965963Y-117787061D01*
X141718229Y-117187501D01*
X141259912Y-116728383D01*
X140660785Y-116479604D01*
X140012061Y-116479037D01*
X139729711Y-116595702D01*
X139729711Y-113394757D01*
X139709568Y-112645256D01*
X139461499Y-112046365D01*
X139168729Y-111917157D01*
X138989123Y-112096762D01*
X138989123Y-111737551D01*
X138859915Y-111444781D01*
X138303000Y-111231441D01*
X138303000Y-104838817D01*
X138303000Y-103632000D01*
X137095531Y-103632000D01*
X136975032Y-103864027D01*
X137223179Y-104393490D01*
X137655053Y-104787688D01*
X138070974Y-104959958D01*
X138303000Y-104838817D01*
X138303000Y-111231441D01*
X138159757Y-111176569D01*
X137410256Y-111196712D01*
X136811365Y-111444781D01*
X136682157Y-111737551D01*
X137835640Y-112891035D01*
X138989123Y-111737551D01*
X138989123Y-112096762D01*
X138015245Y-113070640D01*
X139168729Y-114224123D01*
X139461499Y-114094915D01*
X139729711Y-113394757D01*
X139729711Y-116595702D01*
X139412501Y-116726771D01*
X138989123Y-117149410D01*
X138989123Y-114403729D01*
X137835640Y-113250245D01*
X137656035Y-113429850D01*
X137656035Y-113070640D01*
X136652000Y-112066605D01*
X136652000Y-101421785D01*
X136652000Y-101270214D01*
X136652000Y-99238214D01*
X136593996Y-99098180D01*
X136486819Y-98991004D01*
X136346785Y-98933000D01*
X136195214Y-98933000D01*
X134163214Y-98933000D01*
X134023180Y-98991004D01*
X133916004Y-99098181D01*
X133858000Y-99238215D01*
X133858000Y-99389786D01*
X133858000Y-99533442D01*
X133730197Y-99342172D01*
X133276978Y-99039340D01*
X132742369Y-98933000D01*
X132687631Y-98933000D01*
X132153022Y-99039340D01*
X131699803Y-99342172D01*
X131396971Y-99795391D01*
X131290631Y-100330000D01*
X131396971Y-100864609D01*
X131699803Y-101317828D01*
X132153022Y-101620660D01*
X132687631Y-101727000D01*
X132742369Y-101727000D01*
X133276978Y-101620660D01*
X133730197Y-101317828D01*
X133858000Y-101126557D01*
X133858000Y-101421786D01*
X133916004Y-101561820D01*
X134023181Y-101668996D01*
X134163215Y-101727000D01*
X134314786Y-101727000D01*
X136346786Y-101727000D01*
X136486820Y-101668996D01*
X136593996Y-101561819D01*
X136652000Y-101421785D01*
X136652000Y-112066605D01*
X136502551Y-111917157D01*
X136209781Y-112046365D01*
X135941569Y-112746523D01*
X135961712Y-113496024D01*
X136209781Y-114094915D01*
X136502551Y-114224123D01*
X137656035Y-113070640D01*
X137656035Y-113429850D01*
X136682157Y-114403729D01*
X136811365Y-114696499D01*
X137511523Y-114964711D01*
X138261024Y-114944568D01*
X138859915Y-114696499D01*
X138989123Y-114403729D01*
X138989123Y-117149410D01*
X138953383Y-117185088D01*
X138704604Y-117784215D01*
X138704037Y-118432939D01*
X138951771Y-119032499D01*
X139410088Y-119491617D01*
X140009215Y-119740396D01*
X140657939Y-119740963D01*
X141257499Y-119493229D01*
X141716617Y-119034912D01*
X141965396Y-118435785D01*
X141965963Y-117787061D01*
X141965963Y-120069400D01*
X132632129Y-120069400D01*
X132632129Y-114929323D01*
X132194351Y-113869820D01*
X131384443Y-113058498D01*
X130937000Y-112872703D01*
X130937000Y-101421785D01*
X130937000Y-101270214D01*
X130937000Y-99238214D01*
X130878996Y-99098180D01*
X130771819Y-98991004D01*
X130631785Y-98933000D01*
X130480214Y-98933000D01*
X128448214Y-98933000D01*
X128308180Y-98991004D01*
X128201004Y-99098181D01*
X128159343Y-99198758D01*
X127968379Y-98992812D01*
X127382946Y-98724017D01*
X127127000Y-98842633D01*
X127127000Y-100203000D01*
X127147000Y-100203000D01*
X127147000Y-100457000D01*
X127127000Y-100457000D01*
X127127000Y-101817367D01*
X127382946Y-101935983D01*
X127968379Y-101667188D01*
X128159343Y-101461241D01*
X128201004Y-101561820D01*
X128308181Y-101668996D01*
X128448215Y-101727000D01*
X128599786Y-101727000D01*
X130631786Y-101727000D01*
X130771820Y-101668996D01*
X130878996Y-101561819D01*
X130937000Y-101421785D01*
X130937000Y-112872703D01*
X130325706Y-112618872D01*
X129179323Y-112617871D01*
X128119820Y-113055649D01*
X127308498Y-113865557D01*
X126868872Y-114924294D01*
X126867871Y-116070677D01*
X127305649Y-117130180D01*
X128115557Y-117941502D01*
X129174294Y-118381128D01*
X130320677Y-118382129D01*
X131380180Y-117944351D01*
X132191502Y-117134443D01*
X132631128Y-116075706D01*
X132632129Y-114929323D01*
X132632129Y-120069400D01*
X125430600Y-120069400D01*
X125430600Y-100801247D01*
X125593615Y-101194818D01*
X126031621Y-101667188D01*
X126617054Y-101935983D01*
X126873000Y-101817367D01*
X126873000Y-100457000D01*
X126853000Y-100457000D01*
X126853000Y-100203000D01*
X126873000Y-100203000D01*
X126873000Y-98842633D01*
X126617054Y-98724017D01*
X126031621Y-98992812D01*
X125593615Y-99465182D01*
X125430600Y-99858752D01*
X125430600Y-90930600D01*
X174569400Y-90930600D01*
X174569400Y-120069400D01*
M02*
